<?xml version="1.0" encoding="utf-8"?>
<!-- Generator: Adobe Illustrator 24.3.0, SVG Export Plug-In . SVG Version: 6.00 Build 0)  -->
<svg version="1.1" id="Layer_1" xmlns="http://www.w3.org/2000/svg" xmlns:xlink="http://www.w3.org/1999/xlink" x="0px" y="0px"
	 viewBox="0 0 7995.2 3047.8" style="enable-background:new 0 0 7995.2 3047.8;" xml:space="preserve">
<style type="text/css">
	.st0{fill-rule:evenodd;clip-rule:evenodd;fill:#777FD7;}
</style>
<path id="T_copy_2" class="st0" d="M524.9,272.4c-204.3,250.8-315.6,564.6-315,888.1c0,778.3,631.5,1409.8,1411.1,1409.8
	c323.8,0.5,637.9-111,888.9-315.4c-258.4,318.2-653.4,521.6-1095.9,521.6C634.8,2776.5,3,2145.6,3,1366.7
	C3,924.9,206.6,530.6,524.9,272.4z M3565,1322.4l-8-280.7h-776.3l-8,280.7h49.3c0-78.9,11.5-137,34.6-174.3s62.6-55.9,118.5-55.9
	l137.1-1.3l-1.3,674.5c0,30.2-0.7,57.4-2,81.8c-1.3,24.4-8,43.7-20,57.9c-12,14.2-34.8,22.2-68.6,23.9v43.9h312.9v-58.5
	c-18.6,0.9-37.1,1.8-55.3,2.7c-18.2,0.9-36.6,1.8-55.3,2.7c2-14.3,3.1-28.8,3.3-43.2c0.4-17.3,0.6-37.9,0.7-61.9l1.3-725h113.2
	c46.2-0.9,81.5,7.3,105.9,24.6c24.4,17.3,41.5,43.2,51.3,77.8c9.8,34.6,15.1,78,16,130.4L3565,1322.4L3565,1322.4z M4032.3,1964.3
	c36.8-18.3,70.5-42.4,99.9-71.2c0.9,11.5,2,24,3.3,37.2c1.3,13.3,3.3,27.5,6,42.6H4332v-55.9c-16,0.9-31.9,1.8-47.9,2.7
	c-16,0.9-32,1.8-47.9,2.7c1.8-17.7,3.1-39.5,4-65.2c0.9-25.7,1.3-45.7,1.3-59.9l1.3-502.9h-38.6c-9.8,8.9-23.3,17.1-40.6,24.6
	c-17.3,7.5-45,11.3-83.2,11.3H4039v54.5c16-0.9,31.9-1.5,47.9-2c16-0.5,32-1.1,47.9-2c-2.7,15.2-4.5,30.5-5.3,45.9
	c-0.9,15.5-1.3,33.9-1.3,55.2v341.9c-19.6,28.4-44.7,52.6-73.9,71.2c-30.6,20-62.8,30.4-96.5,31.3c-52.4,0.9-89.5-17.5-111.2-55.2
	c-21.7-37.7-32.6-94.7-32.6-170.9v-405.8h-38.6c-9.8,8.9-23.3,17.1-40.6,24.6c-17.3,7.5-45.1,11.3-83.2,11.3h-41.3v54.6
	c15.1-0.9,30.4-1.5,45.9-2c15.5-0.5,30.9-1.1,45.9-2c-2.6,14.5-4.2,29.2-4.7,43.9c-0.5,14.2-0.6,28.4-0.6,42.6v236.8
	c0,72.7,8.2,130.4,24.6,172.9s40.8,72.7,73.3,90.5c32.4,17.7,72.6,26.6,120.5,26.6C3954.2,1994.2,3993.3,1984.2,4032.3,1964.3
	L4032.3,1964.3z M4718.1,1990.9c17.1-2.9,33.7-8.3,49.3-16c20.1-10,38.7-22.8,55.3-37.9c19.1-16.8,38.4-39.9,57.9-69.2l-35.9-29.3
	c-15.2,23.2-34.9,43.1-57.9,58.5c-20.7,13.9-45,21.3-69.9,21.3c-23.9,0-43.5-7.1-58.6-21.3c-15.1-14.2-26-35.3-32.6-63.2
	c-6.7-27.9-10-61.9-10-101.8l2.7-369.8l223.7-2.7v-51.9h-223.7v-186.2H4573c-6.9,33.3-20.3,64.9-39.3,93.1
	c-19.1,28.4-40.6,50.8-64.6,67.2c-24,16.4-47.5,25.1-70.6,25.9v57.2l102.5-1.3l-2.7,385.8c0,53.2,5.3,96,16,128.4
	c10.6,32.4,25.1,57,43.3,73.8c16.7,16,37,27.6,59.3,33.9c20.4,5.6,41.4,8.5,62.6,8.6C4692.4,1994,4705.3,1992.9,4718.1,1990.9
	L4718.1,1990.9z M5445.2,1945c50.6-32.8,90.8-77.4,120.5-133.7c29.7-56.3,44.6-118.6,44.6-186.9c0-64.7-15.1-122.4-45.3-172.9
	c-29.4-49.8-71.2-91.3-121.2-120.4c-50.6-29.7-107-44.6-169.1-44.6c-63.1,0-119.9,16.2-170.5,48.6c-50.6,32.4-90.6,76.5-119.8,132.4
	c-29.3,55.9-44,118.8-43.9,188.9c0,65.6,14.9,124,44.6,174.9c28.7,50,70.3,91.4,120.5,119.7c50.6,28.8,107,43.2,169.1,43.2
	C5337.7,1994.2,5394.5,1977.8,5445.2,1945L5445.2,1945z M5168.2,1894.4c-31.1-31-54.2-71.2-69.3-120.4
	c-15.3-50.7-22.9-103.4-22.6-156.3c-0.3-46.5,6.6-92.7,20.6-137c13.8-42.6,35.3-77.2,64.6-103.8c29.3-26.6,67-39.9,113.2-39.9
	c35.5,0,65.9,9.3,91.2,27.9c25.3,18.6,45.9,43.7,61.9,75.2c16.6,33.2,28.4,68.6,35.3,105.1c7.6,38.8,11.4,78.2,11.3,117.7
	c0.2,45.4-5.8,90.6-18,134.4c-12,42.6-31.8,77.2-59.3,103.8c-27.6,26.6-64.8,39.9-111.9,39.9
	C5238.3,1941,5199.2,1925.5,5168.2,1894.4L5168.2,1894.4z M5723.5,1972.9h273v-54.6c-14.2,0.9-28.2,1.6-41.9,2
	c-13.8,0.5-27.8,1.1-41.9,2c2.6-14.3,4.1-28.7,4.6-43.2c0.5-13.7,0.7-29.5,0.7-47.2l-1.3-327.3c14.9-27.7,33.2-53.4,54.6-76.5
	c19-20.6,41.3-37.9,65.9-51.2c23.5-12.4,46.3-18.2,68.6-17.3c-3,18.2,1.8,36.8,13.3,51.2c11.2,14.5,28.3,23,46.6,23.3
	c16,0,28.8-3.8,38.6-11.3c16.4-12.7,26.6-31.8,28-52.5c0-29.3-9.3-50.6-28-63.9c-19.1-13.4-41.9-20.4-65.2-20
	c-31.6-0.1-62.9,7.2-91.2,21.3c-28.4,13.9-54.6,31.8-77.9,53.2c-21.2,19-39.6,41-54.6,65.2c-0.9-31.9-1.8-58.3-2.7-79.2
	c-0.9-20.8-2.2-38.3-4-52.5h-38.6c-11.1,9.8-23.4,18-36.6,24.6c-14.7,7.5-41.1,11.3-79.2,11.3h-41.3v54.5c16-0.9,31.7-1.5,47.3-2
	c15.5-0.5,31.3-1.1,47.3-2c-2.6,14.5-4.2,29.2-4.7,43.9c-0.5,14.2-0.7,28.4-0.7,42.6v303.3c0,31.9-0.9,60.1-2.7,84.5
	c-1.8,24.4-8,43.5-18.6,57.2c-10.6,13.8-29.7,20.6-57.3,20.6L5723.5,1972.9L5723.5,1972.9z M6981.8,1950.3
	c56-27.9,105.3-67.6,144.5-116.4c38-47.1,67.1-100.8,85.9-158.3c18.2-54.3,27.6-111.1,27.9-168.3c-0.3-57.5-9.9-114.6-28.6-169
	c-19.4-57.2-48.7-110.6-86.6-157.6c-38.6-48.3-87.7-87.1-147.1-116.4c-59.5-29.3-130.1-43.9-211.7-43.9
	c-78.1,0-146.3,14.6-204.4,43.9c-58.1,29.3-106.5,67.8-145.1,115.7c-38,46.8-67.2,100.3-85.9,157.6c-18.2,54.7-27.7,112-28,169.6
	c0.2,58.7,9.1,117,26.6,172.9c17.6,57.3,45.8,110.8,83.2,157.6c37.7,47.5,86.8,85.4,147.1,113.7c60.4,28.4,132.7,42.6,217,42.6
	C6855.8,1994.2,6924.1,1979.6,6981.8,1950.3L6981.8,1950.3z M6624.9,1897.1c-43.8-28.7-80.7-66.9-107.8-111.7
	c-28.5-46.2-49.8-96.4-63.3-149c-13.3-49.9-20.3-101.3-20.6-153c0-49.7,6.9-99.2,20.6-147c13.1-46.9,33.8-91.4,61.3-131.7
	c26.6-39,61.6-71.5,102.5-95.1c41.3-23.9,89.4-35.9,144.5-35.9c55,0,104.1,13.5,147.1,40.6c43.5,27.5,80.5,64,108.5,107.1
	c29.8,45.4,52.2,95.3,66.6,147.7c15,53.3,22.6,108.3,22.6,163.6c-0.1,49.3-7,98.3-20.6,145.7c-13.1,46.9-33.8,91.4-61.3,131.7
	c-26.4,38.8-61.2,71.1-101.9,94.4c-40.9,23.5-88.8,35.3-143.8,35.3C6719.9,1939.7,6668.4,1925.5,6624.9,1897.1z M7943.2,1323.7
	v-292.7h-67.9l5.3,57.2c-35.1-26-75.2-44.4-117.8-53.9c-42.2-9.3-80.1-14-113.8-14c-54.2,0-98.8,7.8-133.8,23.3
	s-62.6,35.5-82.6,59.9c-18.9,22.5-33.2,48.5-41.9,76.5c-7.6,24.1-11.6,49.2-12,74.5c0,42.6,8.2,78.9,24.6,109.1
	c16.3,30,38.5,56.5,65.2,77.8c27.9,22.3,58,41.7,89.9,57.9c32.8,16.9,66.1,32.8,99.9,47.9c38.2,17.7,74.1,36.4,107.9,55.9
	s61.3,42.6,82.6,69.2c21.3,26.6,32,59.9,31.9,99.8c0,35.5-8.7,65.6-26,90.5c-17.5,25-41.8,44.6-69.9,56.5
	c-30.3,13.1-62.9,19.6-95.9,19.3c-70.2,0-130.1-20.2-179.8-60.5c-49.7-40.4-76.8-99.6-81.2-177.6H7376l8,283.4h69.2l-6.6-57.2
	c34.7,23,72.9,40.1,113.2,50.6c40.3,11.2,82,17,123.8,17.3c66.6,0,123-10.9,169.1-32.6c46.2-21.7,81.4-51.7,105.8-89.8
	c24.4-38.1,36.6-81.6,36.6-130.4c0-42.6-8.2-79.2-24.6-109.8c-16.4-30.6-38.8-57.5-65.9-79.2c-28.5-22.8-59.3-42.7-91.9-59.2
	c-33.7-17.3-67.5-33.5-101.2-48.6c-38.2-17.7-74.3-36.1-108.5-55.2c-34.2-19.1-61.9-41.2-83.2-66.5c-21.3-25.3-32-56.5-32-93.8
	c0-41.7,14.6-78,43.9-109.1c29.3-31,71.5-46.6,126.5-46.6c52.4,0,95.4,12,129.2,35.9c33.5,23.7,60.1,55.8,77.2,93.1
	c17.7,38.1,28.1,79.1,30.6,121.1L7943.2,1323.7L7943.2,1323.7z M1569.2,963.7c13,2.3,25.6,4.2,38.1,5.9c29.9,5.1,59,9.4,87.5,13.1
	c27.9,3.6,56,5.5,84.1,5.5c38.5-0.1,76.7-5.5,113.7-16.1c38-10.7,77.1-29.8,117.1-57.4c38.3-27.4,69.7-63.2,91.7-104.8
	c21.2-39.2,32.4-83,32.6-127.6c0.1-61.2-24.3-119.9-67.6-163c-1.7,45.1-19,86.2-52,123.3c-33,37.2-74.3,66.4-123.9,87.9
	c-44,19.2-85.4,32.2-124.3,39.3c-38.2,7-77,10.5-115.8,10.6c-54.6-0.2-109.1-3.8-163.2-11c-6.2-0.6-12.1-1.1-17.8-1.7
	c-64.8-8.3-130-12.5-195.3-12.7c-33.3,0-66.7,2-99.8,5.9c-87.7,9.3-172.6,36.5-249.5,79.8c-74.8,41.7-134.8,105.6-171.7,182.9
	c-27.1,59.7-40.6,120-40.6,180.8c-0.5,62.3,16.9,123.5,50.3,176.1c33.5,53.2,86.7,90.5,159.4,111.9c19.6,5.1,39.8,7.6,60,7.6
	c47.9,0,94.1-13.5,138.7-40.6c-33.8-21.4-64.3-47.5-90.5-77.7c-47.9-62.5-71.9-131.2-71.9-206.1c-0.2-39.1,8.3-77.8,24.9-113.2
	c16.6-35.5,43.8-65,81.6-88.7c29.3-17.4,61.3-29.9,94.7-36.8c34.8-7.1,70.2-10.7,105.7-10.6c13.5,0,27.3,0.3,41.4,0.8v1402.4
	c18-30.4,39-54.8,63-73.1c23.3-17.9,48.1-33.9,74-47.7c21.4-11.7,42.1-24.8,61.7-39.3c18.7-13.9,34.3-31.6,45.7-52
	c11.8-20.8,17.8-48.1,17.8-81.9L1569.2,963.7L1569.2,963.7z"/>
</svg>
