<?xml version="1.0" encoding="utf-8"?>
<!-- Generator: Adobe Illustrator 24.3.0, SVG Export Plug-In . SVG Version: 6.00 Build 0)  -->
<svg version="1.1" id="Layer_1" xmlns="http://www.w3.org/2000/svg" xmlns:xlink="http://www.w3.org/1999/xlink" x="0px" y="0px"
	 viewBox="0 0 270.7 70.2" style="enable-background:new 0 0 270.7 70.2;" xml:space="preserve">
<style type="text/css">
	.st0{fill:#1B1B1E;}
	.st1{fill-rule:evenodd;clip-rule:evenodd;fill:#777FD7;}
</style>
<path class="st1" d="M14.1,0C8.6,6.8,5.6,15.3,5.6,24c0,21,17.1,38.1,38.2,38.1c8.8,0,17.2-3,24-8.5c-7,8.6-17.7,14.1-29.6,14.1
	C17.1,67.7,0,50.6,0,29.6C0,17.6,5.5,7,14.1,0z"/>
<g>
	<path class="st1" d="M93.6,26.7l-0.3-10.2H65.1l-0.3,10.2h1.8c0-2.9,0.4-5,1.3-6.3s2.3-2,4.3-2l5,0l0,24.6c0,1.1,0,2.1-0.1,3
		c0,0.9-0.3,1.6-0.7,2.1c-0.4,0.5-1.3,0.8-2.5,0.9v1.6h11.4v-2.1c-0.7,0-1.3,0.1-2,0.1c-0.7,0-1.3,0.1-2,0.1c0.1-0.5,0.1-1,0.1-1.6
		c0-0.6,0-1.4,0-2.3l0-26.4h4.1c1.7,0,3,0.3,3.9,0.9c0.9,0.6,1.5,1.6,1.9,2.8c0.4,1.3,0.5,2.8,0.6,4.7L93.6,26.7L93.6,26.7z"/>
	<path class="st1" d="M110.7,50.1c1.3-0.7,2.6-1.5,3.6-2.6c0,0.4,0.1,0.9,0.1,1.4c0,0.5,0.1,1,0.2,1.6h6.9v-2
		c-0.6,0-1.2,0.1-1.7,0.1c-0.6,0-1.2,0.1-1.7,0.1c0.1-0.6,0.1-1.4,0.1-2.4c0-0.9,0-1.7,0-2.2l0-18.3h-1.4c-0.4,0.3-0.8,0.6-1.5,0.9
		c-0.6,0.3-1.6,0.4-3,0.4h-1.5v2c0.6,0,1.2-0.1,1.7-0.1c0.6,0,1.2,0,1.7-0.1c-0.1,0.6-0.2,1.1-0.2,1.7c0,0.6,0,1.2,0,2V45
		c-0.7,1-1.6,1.9-2.7,2.6c-1.1,0.7-2.3,1.1-3.5,1.1c-1.9,0-3.3-0.6-4-2c-0.8-1.4-1.2-3.4-1.2-6.2V25.7h-1.4
		c-0.4,0.3-0.8,0.6-1.5,0.9c-0.6,0.3-1.6,0.4-3,0.4h-1.5v2c0.5,0,1.1-0.1,1.7-0.1c0.6,0,1.1,0,1.7-0.1c-0.1,0.5-0.2,1.1-0.2,1.6
		c0,0.5,0,1,0,1.6v8.6c0,2.6,0.3,4.7,0.9,6.3c0.6,1.5,1.5,2.6,2.7,3.3c1.2,0.6,2.6,1,4.4,1C107.8,51.2,109.2,50.8,110.7,50.1
		L110.7,50.1z"/>
	<path class="st1" d="M135.6,51.1c0.6-0.1,1.2-0.3,1.8-0.6c0.7-0.4,1.4-0.8,2-1.4c0.7-0.6,1.4-1.5,2.1-2.5l-1.3-1.1
		c-0.6,0.8-1.3,1.6-2.1,2.1c-0.8,0.5-1.6,0.8-2.5,0.8c-0.9,0-1.6-0.3-2.1-0.8c-0.6-0.5-0.9-1.3-1.2-2.3c-0.2-1-0.4-2.3-0.4-3.7
		l0.1-13.5l8.1-0.1v-1.9H132v-6.8h-1.6c-0.3,1.2-0.7,2.4-1.4,3.4c-0.7,1-1.5,1.8-2.4,2.4c-0.9,0.6-1.7,0.9-2.6,0.9v2.1l3.7,0
		l-0.1,14c0,1.9,0.2,3.5,0.6,4.7c0.4,1.2,0.9,2.1,1.6,2.7c0.6,0.6,1.3,1,2.2,1.2c0.7,0.2,1.5,0.3,2.3,0.3
		C134.7,51.2,135.2,51.2,135.6,51.1L135.6,51.1z"/>
	<path class="st1" d="M166.5,31.4c-1.1-1.8-2.6-3.3-4.4-4.4c-1.8-1.1-3.9-1.6-6.1-1.6c-2.3,0-4.4,0.6-6.2,1.8
		c-1.8,1.2-3.3,2.8-4.4,4.8c-1.1,2-1.6,4.3-1.6,6.9c0,2.4,0.5,4.5,1.6,6.4c1,1.8,2.6,3.3,4.4,4.4c1.8,1,3.9,1.6,6.2,1.6
		c2.3,0,4.4-0.6,6.2-1.8c1.8-1.2,3.3-2.8,4.4-4.9c1.1-2.1,1.6-4.3,1.6-6.8C168.1,35.4,167.6,33.3,166.5,31.4z M162.5,44
		c-0.4,1.5-1.2,2.8-2.2,3.8c-1,1-2.4,1.5-4.1,1.5c-1.7,0-3.1-0.6-4.3-1.7c-1.1-1.1-2-2.6-2.5-4.4c-0.6-1.8-0.8-3.7-0.8-5.7
		c0-1.7,0.2-3.4,0.7-5c0.5-1.6,1.3-2.8,2.4-3.8c1.1-1,2.4-1.5,4.1-1.5c1.3,0,2.4,0.3,3.3,1c0.9,0.7,1.7,1.6,2.3,2.7
		c0.6,1.2,1,2.5,1.3,3.8c0.3,1.4,0.4,2.9,0.4,4.3C163.2,40.8,163,42.4,162.5,44z"/>
	<path class="st1" d="M172.2,50.4h9.9v-2c-0.5,0-1,0.1-1.5,0.1c-0.5,0-1,0-1.5,0.1c0.1-0.5,0.2-1,0.2-1.6c0-0.5,0-1.1,0-1.7l0-11.9
		c0.5-1,1.2-1.9,2-2.8c0.7-0.8,1.5-1.4,2.4-1.9c0.9-0.5,1.7-0.7,2.5-0.6c-0.1,0.7,0.1,1.3,0.5,1.9c0.4,0.5,1,0.8,1.7,0.8
		c0.6,0,1.1-0.1,1.4-0.4c0.6-0.5,1-1.2,1-1.9c0-1.1-0.3-1.8-1-2.3c-0.7-0.5-1.5-0.7-2.4-0.7c-1.2,0-2.3,0.3-3.3,0.8
		c-1,0.5-2,1.2-2.8,1.9c-0.8,0.7-1.4,1.5-2,2.4c0-1.2-0.1-2.1-0.1-2.9c0-0.8-0.1-1.4-0.1-1.9h-1.4c-0.4,0.4-0.9,0.7-1.3,0.9
		c-0.5,0.3-1.5,0.4-2.9,0.4h-1.5v2c0.6,0,1.2-0.1,1.7-0.1c0.6,0,1.1,0,1.7-0.1c-0.1,0.5-0.2,1.1-0.2,1.6c0,0.5,0,1,0,1.6v11
		c0,1.2,0,2.2-0.1,3.1c-0.1,0.9-0.3,1.6-0.7,2.1c-0.4,0.5-1.1,0.8-2.1,0.8L172.2,50.4L172.2,50.4z"/>
	<path class="st1" d="M226.4,27.3c-0.7-2.1-1.8-4-3.1-5.7c-1.4-1.8-3.2-3.2-5.4-4.2c-2.2-1.1-4.7-1.6-7.7-1.6
		c-2.9,0-5.3,0.5-7.4,1.6c-2.1,1.1-3.9,2.5-5.3,4.2c-1.4,1.7-2.4,3.6-3.1,5.7c-0.7,2-1,4.1-1,6.2c0,2.1,0.3,4.3,1,6.3
		c0.6,2.1,1.7,4,3,5.7c1.4,1.7,3.2,3.1,5.4,4.1c2.2,1,4.8,1.6,7.9,1.6c2.9,0,5.4-0.5,7.5-1.6v0c2-1,3.8-2.5,5.3-4.2
		c1.4-1.7,2.4-3.7,3.1-5.8c0.7-2,1-4,1-6.1C227.5,31.4,227.1,29.3,226.4,27.3z M221.9,39.7c-0.5,1.7-1.2,3.3-2.2,4.8
		c-1,1.4-2.2,2.6-3.7,3.4c-1.5,0.8-3.2,1.3-5.2,1.3c-2.2,0-4.1-0.5-5.6-1.6c-1.6-1-2.9-2.4-3.9-4.1c-1-1.7-1.8-3.5-2.3-5.4
		c-0.5-1.8-0.7-3.7-0.8-5.6c0-1.8,0.3-3.6,0.8-5.4c0.5-1.7,1.2-3.3,2.2-4.8c1-1.4,2.2-2.6,3.7-3.5c1.5-0.9,3.3-1.3,5.3-1.3
		c2,0,3.8,0.5,5.4,1.5c1.6,1,2.9,2.3,4,3.9c1.1,1.7,1.9,3.5,2.4,5.4c0.5,1.9,0.8,4,0.8,6C222.6,36.2,222.4,38,221.9,39.7z"/>
	<path class="st1" d="M253.1,26.8V16.1h-2.5l0.2,2.1c-1.3-0.9-2.7-1.6-4.3-2c-1.5-0.3-2.9-0.5-4.1-0.5c-2,0-3.6,0.3-4.9,0.8
		c-1.3,0.6-2.3,1.3-3,2.2c-0.7,0.8-1.2,1.8-1.5,2.8c-0.3,0.9-0.4,1.8-0.4,2.7c0,1.6,0.3,2.9,0.9,4c0.6,1.1,1.4,2.1,2.4,2.8
		c1,0.8,2.1,1.5,3.3,2.1c1.2,0.6,2.4,1.2,3.6,1.7c1.4,0.6,2.7,1.3,3.9,2c1.2,0.7,2.2,1.5,3,2.5c0.8,1,1.2,2.2,1.2,3.6
		c0,1.3-0.3,2.4-0.9,3.3c-0.6,0.9-1.5,1.6-2.5,2.1c-1.1,0.5-2.3,0.7-3.5,0.7c-2.6,0-4.7-0.7-6.5-2.2c-1.8-1.5-2.8-3.6-3-6.5h-1.9
		l0.3,10.3h2.5l-0.2-2.1c1.3,0.8,2.7,1.5,4.1,1.8c1.5,0.4,3,0.6,4.5,0.6c2.4,0,4.5-0.4,6.2-1.2c1.7-0.8,3-1.9,3.9-3.3
		c0.9-1.4,1.3-3,1.3-4.7c0-1.6-0.3-2.9-0.9-4c-0.6-1.1-1.4-2.1-2.4-2.9c-1-0.8-2.2-1.6-3.3-2.2c-1.2-0.6-2.5-1.2-3.7-1.8
		c-1.4-0.6-2.7-1.3-4-2c-1.2-0.7-2.3-1.5-3-2.4c-0.8-0.9-1.2-2.1-1.2-3.4c0-1.5,0.5-2.8,1.6-4c1.1-1.1,2.6-1.7,4.6-1.7
		c1.9,0,3.5,0.4,4.7,1.3c1.2,0.9,2.2,2,2.8,3.4c0.6,1.4,1,2.9,1.1,4.4L253.1,26.8L253.1,26.8z"/>
</g>
<path class="st1" d="M42.3,18.7c0.4,0.1,0.7,0.1,1,0.2c0.8,0.1,1.6,0.3,2.4,0.4c0.8,0.1,1.5,0.1,2.3,0.1c1,0,2.1-0.1,3.1-0.4
	c1-0.3,2.1-0.8,3.2-1.6c1-0.7,1.9-1.7,2.5-2.8c0.6-1.1,0.9-2.2,0.9-3.4c0-1.7-0.7-3.2-1.8-4.4c0,1.2-0.5,2.3-1.4,3.3s-2,1.8-3.3,2.4
	c-1.2,0.5-2.3,0.9-3.4,1.1c-1,0.2-2.1,0.3-3.1,0.3c-1.5,0-2.9-0.1-4.4-0.3c-0.2,0-0.3,0-0.5,0c-1.8-0.2-3.5-0.3-5.3-0.3
	c-0.9,0-1.8,0.1-2.7,0.2c-2.4,0.3-4.7,1-6.7,2.2c-2,1.1-3.6,2.9-4.6,4.9c-0.7,1.6-1.1,3.2-1.1,4.9c0,1.7,0.5,3.3,1.4,4.8
	c0.9,1.4,2.3,2.4,4.3,3c0.5,0.1,1.1,0.2,1.6,0.2c1.3,0,2.5-0.4,3.7-1.1c-0.9-0.6-1.7-1.3-2.4-2.1c-1.3-1.7-1.9-3.5-1.9-5.6
	c0-1.1,0.2-2.1,0.7-3.1c0.4-1,1.2-1.8,2.2-2.4c0.8-0.5,1.7-0.8,2.6-1c0.9-0.2,1.9-0.3,2.9-0.3c0.4,0,0.7,0,1.1,0v37.9
	c0.5-0.8,1.1-1.5,1.7-2c0.6-0.5,1.3-0.9,2-1.3c0.6-0.3,1.1-0.7,1.7-1.1c0.5-0.4,0.9-0.9,1.2-1.4c0.3-0.6,0.5-1.3,0.5-2.2L42.3,18.7
	L42.3,18.7z"/>
</svg>
