<?xml version="1.0" encoding="utf-8"?>
<!-- Generator: Adobe Illustrator 24.3.0, SVG Export Plug-In . SVG Version: 6.00 Build 0)  -->
<svg version="1.1" id="Layer_1" xmlns="http://www.w3.org/2000/svg" xmlns:xlink="http://www.w3.org/1999/xlink" x="0px" y="0px"
	 viewBox="0 0 2997 939" style="enable-background:new 0 0 2997 939;" xml:space="preserve">
<style type="text/css">
	.st0{fill-rule:evenodd;clip-rule:evenodd;fill:#777FD7;}
</style>
<path id="T_copy_2_1_" class="st0" d="M195.7,0C119.1,94.1,77.4,211.7,77.6,333c0,291.9,236.8,528.6,529.2,528.6
	c121.4,0.2,239.2-41.6,333.3-118.3C843.2,862.7,695.1,939,529.2,939C236.9,939,0,702.4,0,410.4C0,244.7,76.4,96.8,195.7,0z
	 M1335.7,393.7l-3-105.3h-291.1l-3,105.3h18.5c0-29.6,4.3-51.4,13-65.4s23.5-21,44.4-21l51.4-0.5l-0.5,252.9
	c0,11.3-0.2,21.5-0.8,30.7c-0.5,9.2-3,16.4-7.5,21.7c-4.5,5.3-13.1,8.3-25.7,9v16.5h117.3v-22c-7,0.3-13.9,0.7-20.7,1
	c-6.8,0.3-13.7,0.7-20.7,1c0.7-5.4,1.2-10.8,1.2-16.2c0.2-6.5,0.2-14.2,0.2-23.2l0.5-271.9h42.4c17.3-0.3,30.5,2.7,39.7,9.2
	c9.2,6.5,15.6,16.2,19.2,29.2c3.7,13,5.7,29.3,6,48.9L1335.7,393.7L1335.7,393.7z M1511,634.4c13.8-6.9,26.4-15.9,37.4-26.7
	c0.3,4.3,0.7,9,1.2,14s1.3,10.3,2.2,16h71.4v-21c-6,0.3-12,0.7-18,1c-6,0.3-12,0.7-18,1c0.7-6.6,1.2-14.8,1.5-24.4
	c0.3-9.6,0.5-17.1,0.5-22.4l0.5-188.6h-14.5c-3.7,3.3-8.7,6.4-15.2,9.2c-6.5,2.8-16.9,4.2-31.2,4.2h-15.5v20.5c6-0.3,12-0.6,18-0.7
	c6-0.2,12-0.4,18-0.7c-1,5.7-1.7,11.4-2,17.2c-0.3,5.8-0.5,12.7-0.5,20.7v128.2c-7.4,10.7-16.8,19.7-27.7,26.7
	c-11.5,7.5-23.6,11.4-36.2,11.7c-19.7,0.3-33.5-6.6-41.7-20.7c-8.1-14.1-12.2-35.5-12.2-64.1V383.3h-14.5c-3.7,3.3-8.7,6.4-15.2,9.2
	c-6.5,2.8-16.9,4.2-31.2,4.2h-15.5v20.5c5.7-0.3,11.4-0.6,17.2-0.7s11.6-0.4,17.2-0.7c-1,5.4-1.6,10.9-1.8,16.5
	c-0.2,5.3-0.2,10.6-0.2,16v88.8c0,27.3,3.1,48.9,9.2,64.9s15.3,27.3,27.5,33.9c12.1,6.6,27.2,10,45.2,10
	C1481.7,645.7,1496.3,641.9,1511,634.4L1511,634.4z M1768.1,644.4c6.4-1.1,12.6-3.1,18.5-6c7.5-3.8,14.5-8.5,20.7-14.2
	c7.2-6.3,14.4-15,21.7-25.9l-13.5-11c-5.7,8.7-13.1,16.2-21.7,22c-7.8,5.2-16.9,8-26.2,8c-9,0-16.3-2.7-22-8
	c-5.7-5.3-9.7-13.2-12.2-23.7c-2.5-10.5-3.8-23.2-3.8-38.2l1-138.7l83.9-1v-19.4h-83.9v-69.8h-17c-2.6,12.5-7.6,24.3-14.7,34.9
	c-7.2,10.6-15.2,19-24.2,25.2c-9,6.2-17.8,9.4-26.5,9.7v21.5l38.4-0.5l-1,144.7c0,20,2,36,6,48.1c4,12.1,9.4,21.4,16.2,27.7
	c6.3,6,13.9,10.4,22.2,12.7c7.6,2.1,15.5,3.2,23.5,3.2C1758.5,645.6,1763.3,645.2,1768.1,644.4L1768.1,644.4z M2040.8,627.2
	c19-12.3,34-29,45.2-50.1s16.7-44.5,16.7-70.1c0-24.3-5.7-45.9-17-64.9c-11-18.7-26.7-34.2-45.4-45.1c-19-11.1-40.1-16.7-63.4-16.7
	c-23.7,0-45,6.1-63.9,18.2c-19,12.1-34,28.7-44.9,49.6c-11,21-16.5,44.6-16.5,70.8c0,24.6,5.6,46.5,16.7,65.6
	c10.8,18.7,26.4,34.3,45.2,44.9c19,10.8,40.1,16.2,63.4,16.2C2000.5,645.7,2021.8,639.5,2040.8,627.2L2040.8,627.2z M1936.9,608.2
	c-11.7-11.6-20.3-26.7-26-45.1c-5.7-19-8.6-38.8-8.5-58.6c-0.1-17.4,2.5-34.8,7.7-51.4c5.2-16,13.2-28.9,24.2-38.9
	c11-10,25.1-15,42.4-15c13.3,0,24.7,3.5,34.2,10.5c9.5,7,17.2,16.4,23.2,28.2c6.2,12.5,10.7,25.7,13.2,39.4
	c2.8,14.5,4.3,29.3,4.2,44.1c0.1,17-2.2,34-6.7,50.4c-4.5,16-11.9,28.9-22.2,38.9c-10.3,10-24.3,15-41.9,15
	C1963.2,625.7,1948.5,619.9,1936.9,608.2L1936.9,608.2z M2145.1,637.7h102.4v-20.5c-5.3,0.3-10.6,0.6-15.7,0.7
	c-5.2,0.2-10.4,0.4-15.7,0.7c1-5.4,1.5-10.8,1.7-16.2c0.2-5.2,0.3-11.1,0.2-17.7l-0.5-122.7c5.6-10.4,12.5-20,20.5-28.7
	c7.1-7.7,15.5-14.2,24.7-19.2c8.8-4.7,17.4-6.8,25.7-6.5c-1.1,6.8,0.7,13.8,5,19.2c4.2,5.4,10.6,8.6,17.5,8.7c6,0,10.8-1.4,14.5-4.2
	c6.2-4.8,10-11.9,10.5-19.7c0-11-3.5-19-10.5-23.9c-7.1-5-15.7-7.7-24.5-7.5c-11.9,0-23.6,2.7-34.2,8c-10.6,5.2-20.5,11.9-29.2,20
	c-8,7.1-14.8,15.4-20.5,24.4c-0.3-12-0.7-21.9-1-29.7c-0.3-7.8-0.8-14.4-1.5-19.7h-14.5c-4.2,3.7-8.8,6.8-13.7,9.2
	c-5.5,2.8-15.4,4.2-29.7,4.2h-15.5v20.5c6-0.3,11.9-0.6,17.7-0.7c5.8-0.2,11.7-0.4,17.7-0.7c-1,5.4-1.6,10.9-1.8,16.5
	c-0.2,5.3-0.3,10.6-0.2,16v113.7c0,12-0.3,22.5-1,31.7c-0.7,9.1-3,16.3-7,21.5c-4,5.2-11.1,7.7-21.5,7.7L2145.1,637.7L2145.1,637.7z
	 M2617,629.2c21-10.5,39.5-25.4,54.2-43.7c14.2-17.7,25.1-37.8,32.2-59.4c6.8-20.3,10.3-41.6,10.5-63.1c-0.1-21.6-3.7-43-10.7-63.4
	c-7.3-21.5-18.3-41.5-32.5-59.1c-14.5-18.1-32.9-32.7-55.2-43.7c-22.3-11-48.8-16.5-79.4-16.5c-29.3,0-54.8,5.5-76.6,16.5
	c-21.8,11-39.9,25.4-54.4,43.4c-14.3,17.6-25.2,37.6-32.2,59.1c-6.8,20.5-10.4,42-10.5,63.6c0.1,22,3.4,43.9,10,64.9
	c6.6,21.5,17.2,41.6,31.2,59.1c14.2,17.8,32.5,32,55.2,42.7c22.6,10.6,49.8,16,81.4,16C2569.7,645.7,2595.4,640.2,2617,629.2
	L2617,629.2z M2483.2,609.2c-16.4-10.8-30.3-25.1-40.4-41.9c-10.7-17.3-18.7-36.2-23.7-55.9c-5-18.7-7.6-38-7.7-57.4
	c0-18.6,2.6-37.2,7.7-55.1c4.9-17.6,12.7-34.3,23-49.4c10-14.6,23.1-26.8,38.4-35.7c15.5-9,33.5-13.5,54.2-13.5
	c20.6,0,39,5.1,55.2,15.2c16.3,10.3,30.2,24,40.7,40.2c11.2,17,19.6,35.7,25,55.4c5.6,20,8.5,40.6,8.5,61.4
	c0,18.5-2.6,36.9-7.7,54.6c-4.9,17.6-12.7,34.3-23,49.4c-9.9,14.5-22.9,26.7-38.2,35.4c-15.3,8.8-33.3,13.2-53.9,13.2
	C2518.8,625.2,2499.5,619.9,2483.2,609.2z M2977.5,394.2V284.5h-25.5l2,21.5c-13.2-9.8-28.2-16.6-44.2-20.2
	c-15.8-3.5-30-5.2-42.7-5.2c-20.3,0-37,2.9-50.2,8.7s-23.5,13.3-31,22.5c-7.1,8.4-12.4,18.2-15.7,28.7c-2.8,9-4.4,18.5-4.5,27.9
	c0,16,3.1,29.6,9.2,40.9c6.1,11.3,14.4,21.2,24.5,29.2c10.5,8.4,21.8,15.6,33.7,21.7c12.3,6.3,24.8,12.3,37.4,18
	c14.3,6.7,27.8,13.6,40.4,21s23,16,31,25.9c8,10,12,22.4,12,37.4c0,13.3-3.2,24.6-9.7,33.9c-6.6,9.4-15.7,16.7-26.2,21.2
	c-11.3,4.9-23.6,7.4-35.9,7.2c-26.3,0-48.8-7.6-67.4-22.7s-28.8-37.3-30.5-66.6h-19.5l3,106.3h26l-2.5-21.5c13,8.6,27.3,15,42.4,19
	c15.1,4.2,30.7,6.4,46.4,6.5c25,0,46.1-4.1,63.4-12.2c17.3-8.1,30.5-19.4,39.7-33.7c9.2-14.3,13.7-30.6,13.7-48.9
	c0-16-3.1-29.7-9.2-41.2c-6.2-11.5-14.6-21.6-24.7-29.7c-10.7-8.6-22.2-16-34.5-22.2c-12.6-6.5-25.3-12.6-37.9-18.2
	c-14.3-6.6-27.9-13.5-40.7-20.7s-23.2-15.5-31.2-24.9c-8-9.5-12-21.2-12-35.2c0-15.6,5.5-29.3,16.5-40.9
	c11-11.6,26.8-17.5,47.4-17.5c19.6,0,35.8,4.5,48.4,13.5c12.6,8.9,22.6,20.9,29,34.9c6.7,14.3,10.5,29.7,11.5,45.4L2977.5,394.2
	L2977.5,394.2z M587.3,259.2c4.9,0.8,9.6,1.6,14.3,2.2c11.2,1.9,22.1,3.5,32.8,4.9c10.5,1.4,21,2,31.6,2.1c14.4,0,28.8-2.1,42.7-6
	c14.3-4,28.9-11.2,43.9-21.5c14.3-10.3,26.1-23.7,34.4-39.3c8-14.7,12.1-31.1,12.2-47.8c0-22.9-9.1-45-25.4-61.1
	c-0.6,16.9-7.1,32.3-19.5,46.3c-12.4,13.9-27.8,24.9-46.5,32.9c-16.5,7.2-32,12.1-46.6,14.7c-14.3,2.6-28.9,3.9-43.4,4
	c-20.5-0.1-40.9-1.4-61.2-4.1c-2.3-0.2-4.5-0.4-6.7-0.6c-24.3-3.1-48.8-4.7-73.3-4.8c-12.5,0-25,0.7-37.4,2.2
	c-32.9,3.5-64.7,13.7-93.5,29.9c-28,15.6-50.5,39.6-64.4,68.6c-10.1,22.4-15.2,45-15.2,67.8c-0.2,23.4,6.3,46.3,18.9,66.1
	c12.6,20,32.5,33.9,59.8,42c7.4,1.9,14.9,2.9,22.5,2.9c18,0,35.3-5.1,52-15.2c-12.7-8-24.1-17.8-33.9-29.1c-18-23.4-27-49.2-27-77.3
	c-0.1-14.7,3.1-29.2,9.4-42.5c6.2-13.3,16.4-24.4,30.6-33.3c11-6.5,23-11.2,35.5-13.8c13-2.7,26.3-4,39.6-4c5.1,0,10.3,0.1,15.5,0.3
	v525.9c6.8-11.4,14.6-20.5,23.6-27.4c8.7-6.7,18-12.7,27.8-17.9c8-4.4,15.8-9.3,23.1-14.7c7-5.2,12.9-11.9,17.1-19.5
	c4.4-7.8,6.7-18.1,6.7-30.7L587.3,259.2L587.3,259.2z"/>
</svg>
