<?xml version="1.0" encoding="utf-8"?>
<!-- Generator: Adobe Illustrator 24.3.0, SVG Export Plug-In . SVG Version: 6.00 Build 0)  -->
<svg version="1.1" id="Layer_1" xmlns="http://www.w3.org/2000/svg" xmlns:xlink="http://www.w3.org/1999/xlink" x="0px" y="0px"
	 viewBox="0 0 5017 1571.9" style="enable-background:new 0 0 5017 1571.9;" xml:space="preserve">
<style type="text/css">
	.st0{fill-rule:evenodd;clip-rule:evenodd;fill:#777FD7;}
</style>
<path id="T_copy_2" class="st0" d="M327.6,0C199.4,157.5,129.5,354.4,129.9,557.5c0,488.6,396.4,885,885.8,885
	c203.3,0.3,400.4-69.7,558-198c-162.2,199.8-410.2,327.5-687.9,327.5c-489.2,0-885.8-396-885.8-885C0,409.6,127.8,162.1,327.6,0z
	 M2236,659.1l-5-176.2h-487.3l-5,176.2h30.9c0-49.5,7.2-86,21.7-109.4c14.5-23.4,39.3-35.1,74.4-35.1l86.1-0.8l-0.8,423.4
	c0,18.9-0.4,36.1-1.3,51.4c-0.8,15.3-5,27.4-12.5,36.3c-7.5,8.9-21.9,13.9-43,15v27.6h196.4v-36.7c-11.7,0.6-23.3,1.1-34.7,1.7
	c-11.4,0.6-23,1.1-34.7,1.7c1.2-9,1.9-18.1,2.1-27.1c0.3-10.9,0.4-23.8,0.4-38.8l0.8-455.1h71c29-0.5,51.1,4.6,66.5,15.4
	c15.3,10.8,26.1,27.1,32.2,48.9c6.1,21.7,9.5,49,10,81.8L2236,659.1L2236,659.1z M2529.4,1062c23.1-11.5,44.3-26.6,62.7-44.7
	c0.6,7.2,1.2,15,2.1,23.4c0.8,8.3,2.1,17.3,3.8,26.7h119.5v-35.1c-10,0.6-20.1,1.1-30.1,1.7c-10,0.6-20.1,1.1-30.1,1.7
	c1.1-11.1,1.9-24.8,2.5-40.9c0.5-16.1,0.8-28.7,0.8-37.6l0.8-315.7h-24.3c-6.1,5.6-14.6,10.7-25.5,15.4c-10.9,4.7-28.3,7.1-52.2,7.1
	h-25.9v34.2c10-0.5,20.1-1,30.1-1.3c10-0.3,20.1-0.7,30.1-1.3c-1.7,9.5-2.8,19.1-3.3,28.8c-0.6,9.7-0.8,21.3-0.8,34.7V974
	c-12.3,17.9-28.1,33-46.4,44.7c-19.2,12.5-39.4,19.1-60.6,19.6c-32.9,0.6-56.2-11-69.8-34.7c-13.6-23.7-20.5-59.4-20.5-107.3V641.6
	H2368c-6.1,5.6-14.6,10.7-25.5,15.4c-10.9,4.7-28.3,7.1-52.2,7.1h-25.9v34.2c9.5-0.5,19.1-1,28.8-1.3c9.7-0.3,19.4-0.7,28.8-1.3
	c-1.6,9.1-2.6,18.3-2.9,27.6c-0.3,8.9-0.4,17.8-0.4,26.7v148.7c0,45.7,5.2,81.8,15.5,108.6c10.3,26.7,25.6,45.6,46,56.8
	c20.3,11.1,45.6,16.7,75.6,16.7C2480.3,1080.8,2504.8,1074.6,2529.4,1062L2529.4,1062z M2959.8,1078.8c10.7-1.8,21.2-5.2,30.9-10
	c12.6-6.3,24.3-14.3,34.7-23.8c12-10.6,24.1-25,36.4-43.4l-22.6-18.4c-9.6,14.5-21.9,27-36.4,36.7c-13,8.7-28.3,13.4-43.9,13.4
	c-15,0-27.3-4.5-36.8-13.4c-9.5-8.9-16.3-22.1-20.5-39.7c-4.2-17.5-6.3-38.8-6.3-63.9l1.7-232.2l140.4-1.7v-32.6h-140.4V533h-28.4
	c-4.4,20.9-12.7,40.8-24.7,58.5c-12,17.8-25.5,31.9-40.5,42.2c-15,10.3-29.8,15.7-44.3,16.3v35.9l64.4-0.8l-1.7,242.2
	c0,33.4,3.3,60.3,10,80.6c6.7,20.3,15.7,35.8,27.2,46.3c10.5,10,23.2,17.3,37.2,21.3c12.8,3.5,26,5.4,39.3,5.4
	C2943.7,1080.7,2951.8,1080,2959.8,1078.8L2959.8,1078.8z M3416.2,1049.9c31.8-20.6,57-48.6,75.6-83.9c18.7-35.4,28-74.5,28-117.3
	c0-40.6-9.5-76.8-28.4-108.6c-18.5-31.3-44.7-57.3-76.1-75.6c-31.8-18.6-67.1-28-106.1-28c-39.6,0-75.3,10.2-107,30.5
	c-31.8,20.3-56.8,48-75.2,83.1c-18.4,35.1-27.6,74.6-27.6,118.6c0,41.2,9.3,77.8,28,109.8c18,31.4,44.1,57.3,75.6,75.2
	c31.8,18.1,67.1,27.1,106.2,27.1C3348.8,1080.8,3384.5,1070.5,3416.2,1049.9L3416.2,1049.9z M3242.4,1018.2
	c-19.5-19.5-34-44.7-43.5-75.6c-9.6-31.8-14.4-64.9-14.2-98.1c-0.2-29.2,4.2-58.2,13-86c8.6-26.7,22.2-48.4,40.5-65.1
	c18.4-16.7,42.1-25.1,71.1-25.1c22.3,0,41.4,5.8,57.3,17.5c15.9,11.7,28.8,27.4,38.9,47.2c10.4,20.9,17.9,43.1,22.1,66
	c4.8,24.3,7.1,49.1,7.1,73.9c0.1,28.5-3.7,56.9-11.3,84.3c-7.5,26.7-19.9,48.4-37.2,65.1c-17.3,16.7-40.7,25.1-70.2,25.1
	C3286.4,1047.4,3261.9,1037.7,3242.4,1018.2L3242.4,1018.2z M3590.9,1067.5h171.4v-34.2c-8.9,0.6-17.7,1-26.3,1.3
	c-8.7,0.3-17.4,0.7-26.3,1.3c1.6-9,2.6-18,2.9-27.1c0.3-8.6,0.4-18.5,0.4-29.6l-0.8-205.4c9.3-17.4,20.9-33.5,34.3-48
	c11.9-12.9,25.9-23.8,41.4-32.2c14.7-7.8,29.1-11.4,43-10.9c-1.9,11.4,1.1,23.1,8.4,32.2c7,9.1,17.8,14.5,29.2,14.6
	c10,0,18.1-2.4,24.2-7.1c10.3-8,16.7-20,17.6-33c0-18.4-5.9-31.7-17.6-40.1c-12-8.4-26.3-12.8-40.9-12.5c-19.9,0-39.5,4.5-57.3,13.4
	c-17.8,8.7-34.3,20-48.9,33.4c-13.3,11.9-24.8,25.7-34.3,40.9c-0.6-20-1.1-36.6-1.7-49.7c-0.6-13.1-1.4-24.1-2.5-33h-24.2
	c-7,6.1-14.7,11.3-23,15.4c-9.2,4.7-25.8,7.1-49.7,7.1h-25.9v34.2c10-0.5,19.9-1,29.7-1.3c9.7-0.3,19.6-0.7,29.7-1.3
	c-1.6,9.1-2.6,18.3-2.9,27.6c-0.3,8.9-0.4,17.8-0.4,26.7v190.4c0,20-0.6,37.7-1.7,53s-5,27.3-11.7,35.9c-6.7,8.6-18.7,13-35.9,12.9
	L3590.9,1067.5L3590.9,1067.5z M4380.9,1053.3c35.2-17.5,66.1-42.4,90.7-73.1c23.8-29.6,42.1-63.3,53.9-99.4
	c11.4-34.1,17.3-69.7,17.5-105.6c-0.2-36.1-6.2-71.9-18-106.1c-12.2-35.9-30.6-69.4-54.3-99c-24.2-30.3-55-54.7-92.4-73.1
	c-37.3-18.4-81.6-27.6-132.9-27.6c-49,0-91.8,9.2-128.3,27.6c-36.5,18.4-66.9,42.6-91.1,72.7c-23.9,29.4-42.2,62.9-53.9,99
	c-11.4,34.3-17.4,70.3-17.6,106.5c0.1,36.8,5.7,73.4,16.7,108.6c11,36,28.8,69.6,52.2,99c23.7,29.8,54.5,53.6,92.4,71.4
	c37.9,17.8,83.3,26.7,136.2,26.7C4301.7,1080.8,4344.6,1071.7,4380.9,1053.3L4380.9,1053.3z M4156.8,1019.9
	c-27.5-18-50.7-42-67.7-70.1c-17.9-29-31.2-60.5-39.7-93.5c-8.4-31.3-12.7-63.6-13-96c0-31.2,4.4-62.3,13-92.3
	c8.2-29.5,21.2-57.4,38.5-82.7c16.7-24.5,38.7-44.9,64.4-59.7c25.9-15,56.1-22.5,90.7-22.5c34.6,0,65.3,8.5,92.4,25.5
	c27.3,17.2,50.5,40.2,68.1,67.2c18.7,28.5,32.8,59.8,41.8,92.7c9.4,33.4,14.2,68,14.2,102.7c-0.1,30.9-4.4,61.7-13,91.4
	c-8.2,29.5-21.2,57.4-38.5,82.7c-16.5,24.4-38.4,44.6-63.9,59.3c-25.6,14.8-55.7,22.1-90.3,22.1
	C4216.5,1046.6,4184.1,1037.7,4156.8,1019.9z M4984.4,660V476.2h-42.6l3.3,35.9c-22-16.3-47.2-27.8-74-33.8
	c-26.5-5.8-50.3-8.8-71.5-8.8c-34,0-62,4.9-84,14.6c-22,9.7-39.3,22.3-51.8,37.6c-11.9,14.1-20.8,30.4-26.3,48
	c-4.8,15.1-7.3,30.9-7.5,46.8c0,26.7,5.2,49.5,15.5,68.5c10.2,18.9,24.2,35.5,40.9,48.9c17.5,14,36.4,26.2,56.4,36.3
	c20.6,10.6,41.5,20.6,62.7,30.1c24,11.1,46.5,22.8,67.7,35.1c21.2,12.2,38.5,26.7,51.8,43.4c13.4,16.7,20.1,37.6,20.1,62.6
	c0,22.3-5.4,41.2-16.3,56.8c-11,15.7-26.2,28-43.9,35.5c-19,8.2-39.5,12.3-60.2,12.1c-44,0-81.7-12.7-112.9-38
	c-31.2-25.3-48.2-62.5-51-111.5h-32.6l5,177.9h43.5l-4.2-35.9c21.8,14.4,45.8,25.2,71,31.7c25.3,7,51.5,10.7,77.7,10.9
	c41.8,0,77.2-6.8,106.2-20.5s51.1-32.4,66.4-56.4c15.3-23.9,23-51.2,23-81.8c0-26.7-5.2-49.7-15.5-68.9
	c-10.3-19.2-24.4-36.1-41.4-49.7c-17.9-14.3-37.2-26.8-57.7-37.2c-21.2-10.9-42.4-21-63.5-30.5c-24-11.1-46.7-22.7-68.1-34.7
	s-38.9-25.9-52.2-41.7c-13.4-15.9-20.1-35.5-20.1-58.9c0-26.2,9.2-49,27.6-68.5c18.4-19.5,44.9-29.2,79.4-29.2
	c32.9,0,59.9,7.5,81.1,22.5c21,14.9,37.8,35,48.5,58.5c11.1,23.9,17.7,49.7,19.2,76L4984.4,660L4984.4,660z M983.2,434
	c8.1,1.4,16.1,2.7,23.9,3.7c18.7,3.2,37.1,5.9,54.9,8.2c17.5,2.3,35.2,3.4,52.8,3.4c24.1-0.1,48.2-3.5,71.4-10.1
	c23.9-6.7,48.4-18.7,73.5-36.1c24-17.2,43.7-39.7,57.6-65.8c13.3-24.6,20.3-52.1,20.4-80.1c0.1-38.4-15.2-75.3-42.5-102.4
	c-1.1,28.3-11.9,54.1-32.6,77.4s-46.6,41.7-77.8,55.2c-27.6,12-53.6,20.2-78,24.7c-24,4.4-48.3,6.6-72.7,6.6
	c-34.3-0.1-68.5-2.4-102.4-6.9c-3.9-0.3-7.6-0.7-11.1-1.1c-40.7-5.2-81.6-7.9-122.6-8c-20.9,0-41.8,1.2-62.6,3.7
	c-55.1,5.9-108.4,22.9-156.6,50.1c-47,26.2-84.6,66.3-107.8,114.8c-17,37.5-25.5,75.3-25.5,113.5c-0.3,39.1,10.6,77.5,31.6,110.6
	c21.1,33.4,54.4,56.8,100.1,70.3c12.3,3.2,25,4.8,37.7,4.8c30.1,0,59.1-8.5,87-25.5c-21.2-13.4-40.3-29.8-56.8-48.8
	c-30.1-39.2-45.1-82.4-45.1-129.4c-0.1-24.6,5.2-48.8,15.7-71.1c10.4-22.3,27.5-40.8,51.2-55.7c18.4-11,38.5-18.7,59.5-23.1
	c21.8-4.5,44.1-6.7,66.4-6.6c8.5,0,17.2,0.2,26,0.5v880.3c11.3-19.1,24.5-34.4,39.5-45.9c14.6-11.2,30.2-21.3,46.5-30
	c13.5-7.3,26.4-15.6,38.7-24.7c11.7-8.7,21.5-19.8,28.7-32.6c7.4-13.1,11.1-30.2,11.1-51.4L983.2,434L983.2,434z"/>
</svg>
