<svg xmlns="http://www.w3.org/2000/svg" width="265" height="100" viewBox="60 30 265 60">
  <g transform="translate(53.795, 0) scale(0.0677)">
    <defs>
      <style>
        .cls-1 {
          fill: #777fd7;
          fill-rule: evenodd;
        }
      </style>
    </defs>
    <path id="T_copy_2" data-name="T copy 2" class="cls-1" d="M348.721,160.013A525.826,525.826,0,0,0,230.6,493.043c0,291.873,236.813,528.647,529.154,528.647A526.637,526.637,0,0,0,1093.1,903.4C996.188,1022.73,848.085,1099.01,682.164,1099.01c-292.246,0-529.154-236.582-529.154-528.643C153.01,404.7,229.371,256.833,348.721,160.013ZM1488.71,553.75l-3-105.26H1194.6l-3,105.26h18.48q0-44.394,12.98-65.351t44.44-20.952l51.43-.5-0.5,252.925q0,16.965-.75,30.68-0.735,13.726-7.49,21.7-6.735,7.984-25.71,8.979V797.7h117.34v-21.95q-10.485.5-20.72,1t-20.72,1a133.376,133.376,0,0,0,1.25-16.213q0.24-9.727.25-23.2l0.5-271.882h42.44q25.965-.49,39.7,9.229t19.22,29.184q5.49,19.456,5.99,48.888h18.98Zm175.27,240.7a147.293,147.293,0,0,0,37.45-26.689q0.495,6.489,1.25,13.968t2.25,15.964h71.4V776.743q-8.985.5-17.97,1-9,.5-17.98,1,0.99-9.974,1.5-24.444c0.32-9.643.5-17.126,0.5-22.449l0.5-188.571h-14.49q-5.49,4.992-15.23,9.229t-31.2,4.24h-15.48V577.2q8.985-.492,17.97-0.749t17.98-.748a146.483,146.483,0,0,0-2,17.211q-0.5,8.733-.5,20.7V741.823a96.667,96.667,0,0,1-27.71,26.689q-17.235,11.225-36.2,11.723-29.475.5-41.7-20.7t-12.23-64.1V543.275h-14.48q-5.5,4.992-15.23,9.229-9.75,4.243-31.21,4.24h-15.48V577.2c5.65-.328,11.4-0.577,17.22-0.749s11.57-.413,17.23-0.748a115.859,115.859,0,0,0-1.75,16.462c-0.17,5.324-.24,10.648-0.24,15.964v88.8q0,40.911,9.23,64.853t27.47,33.922q18.225,9.974,45.19,9.977Q1642,805.677,1663.98,794.453Zm257.15,9.978a66.261,66.261,0,0,0,18.48-5.987,90.729,90.729,0,0,0,20.72-14.218q10.74-9.47,21.72-25.94l-13.48-10.976a78.064,78.064,0,0,1-21.72,21.95,47.117,47.117,0,0,1-26.22,7.982q-13.47,0-21.97-7.982t-12.23-23.7q-3.75-15.714-3.75-38.163l1-138.684,83.89-1V548.263h-83.89V478.422h-16.97a98.338,98.338,0,0,1-14.74,34.92q-10.74,15.972-24.21,25.193-13.485,9.237-26.47,9.728v21.452l38.45-.5-1,144.672q0,29.931,5.99,48.14t16.23,27.687a52.924,52.924,0,0,0,22.22,12.721,89.737,89.737,0,0,0,23.47,3.242A102.9,102.9,0,0,0,1921.13,804.431Zm272.64-17.211q28.47-18.452,45.19-50.136t16.73-70.091q0-36.41-16.98-64.852a127.079,127.079,0,0,0-45.44-45.148q-28.455-16.707-63.41-16.712-35.475,0-63.92,18.209-28.47,18.216-44.94,49.637-16.485,31.43-16.48,70.839,0,36.924,16.73,65.6a120.539,120.539,0,0,0,45.19,44.9q28.455,16.206,63.42,16.213Q2165.3,805.677,2193.77,787.22Zm-103.86-18.957q-17.49-17.457-25.97-45.148a198.837,198.837,0,0,1-8.49-58.616,166.145,166.145,0,0,1,7.74-51.384q7.74-23.944,24.22-38.911t42.45-14.966q19.965,0,34.2,10.477t23.22,28.185a150.557,150.557,0,0,1,13.23,39.411,229.42,229.42,0,0,1,4.25,44.149,185.224,185.224,0,0,1-6.74,50.386q-6.75,23.944-22.22,38.911-15.5,14.966-41.95,14.966Q2107.375,785.723,2089.91,768.263ZM2298.13,797.7H2400.5V777.242q-7.995.5-15.73,0.749-7.755.257-15.73,0.748a114.741,114.741,0,0,0,1.74-16.213q0.255-7.728.25-17.71l-0.5-122.721a138.932,138.932,0,0,1,20.48-28.685,94.569,94.569,0,0,1,24.72-19.206q13.215-6.979,25.71-6.485a24.373,24.373,0,0,0,5,19.206,22.456,22.456,0,0,0,17.47,8.73q8.985,0,14.48-4.24a27.148,27.148,0,0,0,10.49-19.7q0-16.463-10.49-23.946a41.031,41.031,0,0,0-24.46-7.483,76.565,76.565,0,0,0-34.21,7.982,122.65,122.65,0,0,0-29.21,19.955,112.359,112.359,0,0,0-20.47,24.444q-0.51-17.96-1-29.682-0.51-11.716-1.5-19.705h-14.48a63.637,63.637,0,0,1-13.73,9.229q-8.25,4.243-29.71,4.24h-15.48V577.2q8.985-.492,17.72-0.749t17.73-.748a115.859,115.859,0,0,0-1.75,16.462q-0.255,7.986-.25,15.964V721.868q0,17.959-1,31.678T2319.6,775q-5.985,7.742-21.47,7.733V797.7Zm471.88-8.481a162.293,162.293,0,0,0,54.18-43.651A187.825,187.825,0,0,0,2856.4,686.2a202.94,202.94,0,0,0,10.48-63.106,198.057,198.057,0,0,0-10.73-63.356,192.807,192.807,0,0,0-32.46-59.115q-21.72-27.185-55.18-43.651t-79.39-16.463q-43.95,0-76.65,16.463t-54.43,43.4a184.7,184.7,0,0,0-32.21,59.115,204.457,204.457,0,0,0-10.49,63.606,219.207,219.207,0,0,0,9.99,64.852,178.613,178.613,0,0,0,31.21,59.116q21.225,26.694,55.18,42.653t81.39,15.963Q2737.555,805.677,2770.01,789.215ZM2636.18,769.26a131.628,131.628,0,0,1-40.44-41.9,202.342,202.342,0,0,1-23.72-55.873,228.61,228.61,0,0,1-7.74-57.37,200.049,200.049,0,0,1,7.74-55.124,167.738,167.738,0,0,1,22.97-49.388,117.718,117.718,0,0,1,38.45-35.669q23.22-13.469,54.18-13.469t55.17,15.215a133.741,133.741,0,0,1,40.7,40.159,194.863,194.863,0,0,1,24.97,55.374,227.772,227.772,0,0,1,8.49,61.36,199,199,0,0,1-7.74,54.626,168.055,168.055,0,0,1-22.97,49.388A116.027,116.027,0,0,1,2748.04,772q-22.98,13.224-53.93,13.22Q2660.645,785.224,2636.18,769.26Zm494.35-215.01V444.5h-25.47l2,21.452a117.049,117.049,0,0,0-44.19-20.205q-23.73-5.238-42.69-5.238-30.465,0-50.19,8.73t-30.96,22.45a83.026,83.026,0,0,0-15.73,28.684,97.676,97.676,0,0,0-4.49,27.936q0,23.946,9.24,40.907a95.739,95.739,0,0,0,24.46,29.184,197.31,197.31,0,0,0,33.71,21.7q18.465,9.483,37.45,17.959,21.465,9.974,40.45,20.952t30.96,25.941q11.985,14.967,11.98,37.415,0,19.959-9.74,33.923a61.105,61.105,0,0,1-26.21,21.2,88.425,88.425,0,0,1-35.95,7.233q-39.465,0-67.42-22.7t-30.46-66.6h-19.47l3,106.258h25.96l-2.49-21.451a140.726,140.726,0,0,0,42.44,18.957,177.729,177.729,0,0,0,46.44,6.485q37.455,0,63.42-12.222t39.69-33.673q13.74-21.444,13.73-48.889,0-23.945-9.23-41.156a96.6,96.6,0,0,0-24.72-29.683,200.839,200.839,0,0,0-34.46-22.2q-18.975-9.729-37.95-18.209-21.465-9.974-40.69-20.7T2971.74,554q-11.985-14.217-11.99-35.17,0-23.444,16.48-40.907t47.44-17.46q29.46,0,48.44,13.469a87.291,87.291,0,0,1,28.96,34.921,125.1,125.1,0,0,1,11.48,45.4h17.98Zm-2390.2-135q7.292,1.269,14.269,2.217,16.8,2.852,32.82,4.91a246.568,246.568,0,0,0,31.551,2.059,156.878,156.878,0,0,0,42.65-6.019q21.4-6.014,43.917-21.542a114.143,114.143,0,0,0,34.4-39.282,101.248,101.248,0,0,0,12.209-47.836,86.086,86.086,0,0,0-25.368-61.141q-0.952,25.349-19.5,46.252t-46.454,32.946q-24.734,10.774-46.614,14.732a243.234,243.234,0,0,1-43.442,3.959,480.043,480.043,0,0,1-61.2-4.118q-3.493-.312-6.659-0.634A586.56,586.56,0,0,0,629.659,341a318.259,318.259,0,0,0-37.417,2.218A242.844,242.844,0,0,0,498.7,373.157a154.864,154.864,0,0,0-64.371,68.585q-15.221,33.583-15.22,67.794a121.391,121.391,0,0,0,18.867,66.052q18.863,29.937,59.773,41.975a90.152,90.152,0,0,0,22.514,2.851q26.947,0,52-15.206a153.959,153.959,0,0,1-33.929-29.145q-26.955-35.164-26.953-77.3a98.765,98.765,0,0,1,9.355-42.45q9.348-19.958,30.6-33.263a114.618,114.618,0,0,1,35.515-13.781,194.192,194.192,0,0,1,39.637-3.96q7.611,0,15.538.317V931.505q10.144-17.106,23.623-27.4A202.5,202.5,0,0,1,693.4,886.2a202.907,202.907,0,0,0,23.148-14.73,62.117,62.117,0,0,0,17.124-19.483q6.658-11.716,6.659-30.729V419.251Z"/>
  </g>
</svg>