<?xml version="1.0" encoding="utf-8"?>
<!-- Generator: Adobe Illustrator 24.3.0, SVG Export Plug-In . SVG Version: 6.00 Build 0)  -->
<svg version="1.1" id="Layer_1" xmlns="http://www.w3.org/2000/svg" xmlns:xlink="http://www.w3.org/1999/xlink" x="0px" y="0px"
	 viewBox="0 0 4137.2 1296.2" style="enable-background:new 0 0 4137.2 1296.2;" xml:space="preserve">
<style type="text/css">
	.st0{fill-rule:evenodd;clip-rule:evenodd;fill:#777FD7;}
</style>
<path id="T_copy_2_3_" class="st0" d="M270.2,0C164.4,129.8,106.8,292.3,107.1,459.7c0,402.9,326.9,729.8,730.5,729.8
	c167.6,0.2,330.2-57.4,460.2-163.3c-133.8,164.7-338.2,270-567.3,270C327,1296.2,0,969.6,0,566.5C0,337.8,105.4,133.7,270.2,0z
	 M1843.9,543.5l-4.1-145.3h-401.9l-4.1,145.3h25.5c0-40.9,6-70.9,17.9-90.2c11.9-19.3,32.4-28.9,61.3-28.9l71-0.7l-0.7,349.1
	c0,15.6-0.3,29.7-1,42.4c-0.7,12.6-4.1,22.6-10.3,30c-6.2,7.3-18,11.5-35.5,12.4v22.7h162V850c-9.6,0.5-19.2,0.9-28.6,1.4
	c-9.4,0.5-19,0.9-28.6,1.4c1-7.4,1.6-14.9,1.7-22.4c0.2-9,0.3-19.6,0.3-32l0.7-375.3h58.6c23.9-0.5,42.2,3.8,54.8,12.7
	c12.6,8.9,21.5,22.4,26.5,40.3c5.1,17.9,7.8,40.4,8.3,67.5L1843.9,543.5L1843.9,543.5z M2085.8,875.8c19.1-9.5,36.5-21.9,51.7-36.8
	c0.5,6,1,12.4,1.7,19.3s1.7,14.2,3.1,22h98.6v-28.9c-8.3,0.5-16.5,0.9-24.8,1.4c-8.3,0.5-16.6,0.9-24.8,1.4
	c0.9-9.2,1.6-20.4,2.1-33.7c0.4-13.3,0.7-23.6,0.7-31l0.7-260.3h-20c-5.1,4.6-12.1,8.8-21,12.7c-9,3.9-23.3,5.9-43.1,5.9h-21.4v28.2
	c8.3-0.5,16.5-0.8,24.8-1c8.3-0.2,16.5-0.6,24.8-1c-1.4,7.9-2.3,15.8-2.8,23.8c-0.5,8-0.7,17.6-0.7,28.6v177
	c-10.2,14.7-23.2,27.2-38.3,36.8c-15.9,10.3-32.5,15.7-50,16.2c-27.1,0.5-46.3-9.1-57.6-28.6c-11.3-19.5-16.9-49-16.9-88.5v-210h-20
	c-5.1,4.6-12.1,8.8-21,12.7c-9,3.9-23.3,5.9-43.1,5.9h-21.4v28.2c7.8-0.5,15.7-0.8,23.8-1s16-0.6,23.8-1c-1.3,7.5-2.2,15.1-2.4,22.7
	c-0.2,7.3-0.3,14.7-0.3,22v122.6c0,37.7,4.2,67.5,12.7,89.5c8.5,22,21.1,37.6,37.9,46.8c16.8,9.2,37.6,13.8,62.4,13.8
	C2045.4,891.3,2065.6,886.1,2085.8,875.8L2085.8,875.8z M2440.8,889.6c8.9-1.5,17.5-4.3,25.5-8.3c10.4-5.2,20-11.8,28.6-19.6
	c9.9-8.7,19.9-20.7,30-35.8l-18.6-15.2c-7.9,12-18.1,22.3-30,30.3c-10.7,7.2-23.3,11-36.2,11c-12.4,0-22.5-3.7-30.3-11
	c-7.8-7.3-13.5-18.3-16.9-32.7c-3.5-14.5-5.2-32-5.2-52.7l1.4-191.4l115.8-1.4V536h-115.8v-96.4h-23.4
	c-3.6,17.2-10.5,33.6-20.3,48.2c-9.9,14.7-21,26.3-33.4,34.8c-12.4,8.5-24.6,13-36.5,13.4v29.6l53.1-0.7l-1.4,199.7
	c0,27.5,2.8,49.7,8.3,66.5c5.5,16.8,13,29.5,22.4,38.2c8.6,8.3,19.2,14.3,30.7,17.6c10.6,2.9,21.4,4.4,32.4,4.5
	C2427.5,891.2,2434.2,890.6,2440.8,889.6L2440.8,889.6z M2817.2,865.8c26.2-17,47-40.1,62.4-69.2c15.4-29.2,23.1-61.4,23.1-96.8
	c0-33.5-7.8-63.3-23.4-89.5c-15.2-25.8-36.8-47.2-62.7-62.3c-26.2-15.4-55.4-23.1-87.5-23.1c-32.6,0-62.1,8.4-88.2,25.1
	c-26.2,16.8-46.9,39.6-62,68.5c-15.2,28.9-22.8,61.5-22.7,97.8c0,34,7.7,64.2,23.1,90.6c14.9,25.9,36.4,47.3,62.4,62
	c26.2,14.9,55.4,22.4,87.5,22.4C2761.6,891.3,2791,882.8,2817.2,865.8L2817.2,865.8z M2673.8,839.7c-16.1-16.1-28-36.8-35.9-62.3
	c-7.9-26.2-11.9-53.5-11.7-80.9c-0.2-24.1,3.4-48,10.7-70.9c7.1-22,18.3-39.9,33.4-53.7c15.2-13.8,34.7-20.7,58.6-20.7
	c18.4,0,34.1,4.8,47.2,14.5c13.1,9.6,23.8,22.6,32.1,38.9c8.6,17.2,14.7,35.5,18.3,54.4c3.9,20.1,5.9,40.5,5.9,60.9
	c0.1,23.5-3,46.9-9.3,69.6c-6.2,22-16.4,39.9-30.7,53.7c-14.3,13.8-33.6,20.7-57.9,20.7C2710.1,863.8,2689.9,855.7,2673.8,839.7
	L2673.8,839.7z M2961.2,880.3h141.3v-28.2c-7.4,0.5-14.6,0.8-21.7,1c-7.1,0.2-14.4,0.6-21.7,1c1.3-7.4,2.1-14.9,2.4-22.4
	c0.2-7.1,0.3-15.3,0.3-24.4l-0.7-169.4c7.7-14.3,17.2-27.7,28.3-39.6c9.8-10.7,21.4-19.6,34.1-26.5c12.2-6.4,24-9.4,35.5-9
	c-1.6,9.4,0.9,19.1,6.9,26.5c5.8,7.5,14.7,11.9,24.1,12.1c8.3,0,14.9-2,20-5.9c8.5-6.6,13.8-16.5,14.5-27.2
	c0-15.2-4.8-26.2-14.5-33.1c-9.9-7-21.7-10.6-33.8-10.3c-16.4,0-32.6,3.7-47.2,11c-14.7,7.2-28.3,16.5-40.3,27.5
	c-11,9.8-20.5,21.2-28.3,33.7c-0.5-16.5-0.9-30.2-1.4-41c-0.5-10.8-1.2-19.8-2.1-27.2h-20c-5.7,5.1-12.1,9.3-19,12.7
	c-7.6,3.9-21.3,5.9-41,5.9h-21.4v28.2c8.3-0.5,16.4-0.8,24.5-1c8-0.2,16.2-0.6,24.5-1c-1.3,7.5-2.2,15.1-2.4,22.7
	c-0.2,7.3-0.3,14.7-0.3,22v157c0,16.5-0.5,31.1-1.4,43.7c-0.9,12.6-4.1,22.5-9.6,29.6c-5.5,7.1-15.4,10.7-29.6,10.7L2961.2,880.3
	L2961.2,880.3z M3612.6,868.6c29-14.4,54.5-35,74.8-60.3c19.7-24.4,34.7-52.2,44.5-82c9.4-28.1,14.3-57.5,14.5-87.1
	c-0.1-29.8-5.1-59.3-14.8-87.5c-10-29.6-25.2-57.2-44.8-81.6c-20-25-45.4-45.1-76.2-60.3c-30.8-15.2-67.3-22.7-109.6-22.7
	c-40.4,0-75.7,7.6-105.8,22.7c-30.1,15.2-55.1,35.1-75.1,59.9c-19.7,24.2-34.8,51.9-44.5,81.6c-9.4,28.3-14.3,58-14.5,87.8
	c0.1,30.4,4.7,60.5,13.8,89.5c9.1,29.7,23.7,57.4,43.1,81.6c19.5,24.6,44.9,44.2,76.2,58.9c31.2,14.7,68.7,22,112.4,22
	C3547.4,891.3,3582.8,883.7,3612.6,868.6L3612.6,868.6z M3427.9,841c-22.7-14.9-41.8-34.6-55.8-57.8c-14.7-23.9-25.8-49.9-32.7-77.1
	c-6.9-25.8-10.5-52.5-10.7-79.2c0-25.7,3.6-51.4,10.7-76.1c6.8-24.3,17.5-47.3,31.7-68.2c13.8-20.2,31.9-37,53.1-49.2
	c21.4-12.4,46.3-18.6,74.8-18.6c28.5,0,53.9,7,76.2,21c22.5,14.2,41.7,33.1,56.2,55.4c15.4,23.5,27,49.3,34.5,76.4
	c7.7,27.6,11.7,56.1,11.7,84.7c0,25.5-3.6,50.9-10.7,75.4c-6.8,24.3-17.5,47.3-31.7,68.2c-13.6,20.1-31.7,36.8-52.7,48.9
	c-21.1,12.2-46,18.3-74.4,18.2C3477.1,863.1,3450.4,855.7,3427.9,841z M4110.3,544.2V392.7h-35.2l2.8,29.6
	c-18.2-13.5-38.9-23-61-27.9c-21.8-4.8-41.5-7.2-58.9-7.2c-28,0-51.1,4-69.3,12.1c-18.2,8-32.4,18.4-42.7,31
	c-9.8,11.6-17.2,25.1-21.7,39.6c-3.9,12.5-6,25.5-6.2,38.6c0,22,4.3,40.9,12.8,56.5c8.4,15.6,19.9,29.3,33.8,40.3
	c14.5,11.5,30,21.6,46.5,30c17,8.7,34.2,17,51.7,24.8c19.8,9.2,38.4,18.8,55.8,28.9c17.5,10.1,31.7,22,42.7,35.8
	c11,13.8,16.5,31,16.5,51.6c0,18.4-4.5,34-13.4,46.8c-9.1,13-21.6,23.1-36.2,29.3c-15.7,6.8-32.6,10.2-49.6,10
	c-36.3,0-67.3-10.4-93.1-31.3c-25.7-20.9-39.7-51.5-42-91.9h-26.9l4.1,146.7h35.8l-3.4-29.6c17.9,11.9,37.7,20.8,58.6,26.2
	c20.9,5.8,42.4,8.8,64.1,9c34.5,0,63.7-5.6,87.5-16.9c23.9-11.2,42.2-26.7,54.8-46.5c12.6-19.7,19-42.2,19-67.5
	c0-22-4.2-41-12.7-56.8c-8.5-15.8-20.1-29.8-34.1-41c-14.8-11.8-30.7-22.1-47.6-30.6c-17.5-9-34.9-17.3-52.4-25.1
	c-19.8-9.2-38.5-18.7-56.2-28.6s-32.1-21.3-43.1-34.4c-11-13.1-16.5-29.3-16.6-48.6c0-21.6,7.6-40.4,22.7-56.5
	c15.2-16.1,37-24.1,65.5-24.1c27.1,0,49.4,6.2,66.9,18.6c17.3,12.3,31.1,28.9,40,48.2c9.2,19.7,14.6,41,15.8,62.7L4110.3,544.2
	L4110.3,544.2z M810.8,357.9c6.7,1.2,13.3,2.2,19.7,3.1c15.5,2.6,30.6,4.9,45.3,6.8c14.4,1.9,29,2.8,43.6,2.8
	c19.9,0,39.7-2.8,58.9-8.3c19.7-5.5,39.9-15.4,60.6-29.7c19.8-14.2,36.1-32.7,47.5-54.2c11-20.3,16.8-43,16.9-66
	c0-31.7-12.6-62.1-35-84.4c-0.9,23.3-9.8,44.6-26.9,63.8s-38.4,34.4-64.1,45.5c-22.8,9.9-44.2,16.7-64.3,20.3
	c-19.8,3.6-39.9,5.4-60,5.5c-28.3-0.1-56.5-2-84.5-5.7c-3.2-0.3-6.3-0.6-9.2-0.9c-33.5-4.3-67.3-6.5-101.1-6.6
	c-17.3,0-34.5,1-51.7,3.1c-45.4,4.8-89.4,18.9-129.1,41.3c-38.7,21.6-69.8,54.7-88.9,94.7c-14,30.9-21,62.1-21,93.6
	c-0.3,32.3,8.8,63.9,26,91.2c17.4,27.6,44.9,46.9,82.5,57.9c10.2,2.6,20.6,3.9,31.1,3.9c24.8,0,48.7-7,71.8-21
	c-17.5-11.1-33.3-24.6-46.8-40.2c-24.8-32.4-37.2-67.9-37.2-106.7c-0.1-20.2,4.3-40.3,12.9-58.6c8.6-18.4,22.7-33.7,42.2-45.9
	c15.2-9,31.7-15.5,49-19c18-3.7,36.3-5.5,54.7-5.5c7,0,14.2,0.1,21.4,0.4V1065c9.3-15.7,20.2-28.4,32.6-37.8
	c12.1-9.3,24.9-17.5,38.3-24.7c11.1-6,21.8-12.8,32-20.3c9.7-7.2,17.7-16.4,23.6-26.9c6.1-10.8,9.2-24.9,9.2-42.4L810.8,357.9
	L810.8,357.9z"/>
</svg>
