<?xml version="1.0" encoding="utf-8"?>
<!-- Generator: Adobe Illustrator 24.3.0, SVG Export Plug-In . SVG Version: 6.00 Build 0)  -->
<svg version="1.1" id="Layer_1" xmlns="http://www.w3.org/2000/svg" xmlns:xlink="http://www.w3.org/1999/xlink" x="0px" y="0px"
	 viewBox="0 0 3583.7 1122.8" style="enable-background:new 0 0 3583.7 1122.8;" xml:space="preserve">
<style type="text/css">
	.st0{fill-rule:evenodd;clip-rule:evenodd;fill:#777FD7;}
</style>
<path id="T_copy_2_2_" class="st0" d="M234,0C142.4,112.5,92.5,253.2,92.8,398.2c0,349,283.2,632.1,632.7,632.1
	c145.2,0.2,286-49.8,398.6-141.4c-115.9,142.7-293,233.9-491.4,233.9C283.3,1122.8,0,839.9,0,490.7C0,292.6,91.3,115.8,234,0z
	 M1597.2,470.8l-3.6-125.9h-348.1l-3.6,125.9h22.1c0-35.4,5.2-61.4,15.5-78.1c10.3-16.7,28.1-25.1,53.1-25.1l61.5-0.6l-0.6,302.4
	c0,13.5-0.3,25.8-0.9,36.7c-0.6,10.9-3.6,19.6-9,25.9c-5.4,6.4-15.6,9.9-30.7,10.7v19.7h140.3v-26.2c-8.4,0.4-16.6,0.8-24.8,1.2
	c-8.2,0.4-16.4,0.8-24.8,1.2c0.9-6.4,1.4-12.9,1.5-19.4c0.2-7.8,0.3-17,0.3-27.7l0.6-325.1h50.7c20.7-0.4,36.5,3.3,47.5,11
	s18.6,19.4,23,34.9c4.4,15.5,6.8,35,7.2,58.5L1597.2,470.8L1597.2,470.8z M1806.7,758.6c16.5-8.2,31.6-19,44.8-31.9
	c0.4,5.2,0.9,10.7,1.5,16.7s1.5,12.3,2.7,19.1h85.4v-25.1c-7.2,0.4-14.3,0.8-21.5,1.2c-7.2,0.4-14.3,0.8-21.5,1.2
	c0.8-8,1.4-17.7,1.8-29.2c0.4-11.5,0.6-20.5,0.6-26.8l0.6-225.5h-17.3c-4.4,4-10.4,7.7-18.2,11c-7.8,3.4-20.2,5.1-37.3,5.1h-18.5
	v24.5c7.2-0.4,14.3-0.7,21.5-0.9c7.2-0.2,14.3-0.5,21.5-0.9c-1.2,6.8-2,13.7-2.4,20.6c-0.4,7-0.6,15.2-0.6,24.8v153.3
	c-8.8,12.8-20.1,23.6-33.1,31.9c-13.7,8.9-28.2,13.6-43.3,14c-23.5,0.4-40.1-7.9-49.9-24.8c-9.7-16.9-14.6-42.4-14.6-76.6V458.3
	h-17.3c-4.4,4-10.5,7.7-18.2,11c-7.8,3.4-20.2,5.1-37.3,5.1h-18.5v24.5c6.8-0.4,13.6-0.7,20.6-0.9c7-0.2,13.8-0.5,20.6-0.9
	c-1.2,6.5-1.9,13.1-2.1,19.7c-0.2,6.4-0.3,12.7-0.3,19.1V642c0,32.6,3.7,58.5,11,77.5c7.4,19.1,18.3,32.6,32.8,40.6
	c14.5,8,32.5,11.9,54,11.9C1771.7,772.1,1789.2,767.6,1806.7,758.6L1806.7,758.6z M2114.2,770.6c7.7-1.3,15.1-3.7,22.1-7.2
	c9-4.5,17.3-10.2,24.8-17c8.6-7.5,17.2-17.9,26-31l-16.1-13.1c-6.8,10.4-15.7,19.3-26,26.2c-9.3,6.2-20.2,9.5-31.4,9.5
	c-10.7,0-19.5-3.2-26.3-9.5c-6.8-6.4-11.7-15.8-14.6-28.3c-3-12.5-4.5-27.7-4.5-45.6l1.2-165.8l100.3-1.2v-23.3h-100.3v-83.5h-20.3
	c-3.1,14.9-9.1,29.1-17.6,41.8c-8.6,12.7-18.2,22.8-28.9,30.1c-10.7,7.4-21.3,11.2-31.7,11.6v25.7l46-0.6l-1.2,173
	c0,23.9,2.4,43,7.2,57.6c4.8,14.5,11.2,25.6,19.4,33.1c7.5,7.2,16.6,12.4,26.6,15.2c9.1,2.5,18.6,3.8,28.1,3.9
	C2102.7,772,2108.5,771.5,2114.2,770.6L2114.2,770.6z M2440.2,750c22.7-14.7,40.7-34.7,54-60c13.3-25.3,20-53.2,20-83.8
	c0-29-6.8-54.9-20.3-77.5c-13.2-22.3-31.9-40.9-54.3-54c-22.7-13.3-48-20-75.8-20c-28.3,0-53.8,7.3-76.4,21.8
	c-22.7,14.5-40.6,34.3-53.7,59.4c-13.1,25.1-19.7,53.3-19.7,84.7c0,29.4,6.7,55.6,20,78.4c12.9,22.4,31.5,41,54,53.7
	c22.7,12.9,48,19.4,75.8,19.4C2392.1,772.1,2417.5,764.7,2440.2,750L2440.2,750z M2316.1,727.3c-13.9-13.9-24.3-31.9-31.1-54
	c-6.9-22.7-10.3-46.4-10.2-70.1c-0.2-20.8,3-41.6,9.3-61.4c6.2-19.1,15.8-34.6,29-46.5c13.1-11.9,30.1-17.9,50.8-17.9
	c15.9,0,29.5,4.2,40.9,12.5c11.3,8.4,20.6,19.6,27.8,33.7c7.4,14.9,12.8,30.8,15.8,47.1c3.4,17.4,5.1,35.1,5.1,52.8
	c0.1,20.4-2.6,40.6-8.1,60.2c-5.4,19.1-14.2,34.6-26.6,46.5c-12.4,11.9-29.1,17.9-50.2,17.9C2347.5,748.2,2330,741.2,2316.1,727.3
	L2316.1,727.3z M2565,762.5h122.4v-24.5c-6.4,0.4-12.6,0.7-18.8,0.9c-6.2,0.2-12.5,0.5-18.8,0.9c1.2-6.4,1.8-12.9,2.1-19.4
	c0.2-6.2,0.3-13.2,0.3-21.2l-0.6-146.7c6.7-12.4,14.9-24,24.5-34.3c8.5-9.2,18.5-17,29.6-23c10.5-5.6,20.8-8.1,30.7-7.8
	c-1.4,8.2,0.8,16.5,6,23c5,6.5,12.7,10.3,20.9,10.4c7.2,0,12.9-1.7,17.3-5.1c7.4-5.7,11.9-14.3,12.5-23.6c0-13.1-4.2-22.7-12.5-28.6
	c-8.5-6-18.8-9.2-29.2-8.9c-14.2,0-28.2,3.2-40.9,9.5c-12.7,6.2-24.5,14.3-34.9,23.9c-9.5,8.5-17.7,18.4-24.5,29.2
	c-0.4-14.3-0.8-26.1-1.2-35.5c-0.4-9.3-1-17.2-1.8-23.6h-17.3c-5,4.4-10.5,8.1-16.4,11c-6.6,3.4-18.4,5.1-35.5,5.1h-18.5v24.5
	c7.2-0.4,14.2-0.7,21.2-0.9c7-0.2,14-0.5,21.2-0.9c-1.2,6.5-1.9,13.1-2.1,19.7c-0.2,6.4-0.3,12.7-0.3,19.1v136
	c0,14.3-0.4,26.9-1.2,37.9c-0.8,10.9-3.6,19.5-8.4,25.7c-4.8,6.2-13.3,9.3-25.7,9.2L2565,762.5L2565,762.5z M3129.3,752.4
	c25.1-12.5,47.2-30.3,64.8-52.2c17-21.1,30.1-45.2,38.5-71c8.1-24.3,12.4-49.8,12.5-75.5c-0.1-25.8-4.5-51.4-12.8-75.8
	c-8.7-25.7-21.8-49.6-38.8-70.7c-17.3-21.7-39.3-39.1-66-52.2c-26.7-13.1-58.3-19.7-94.9-19.7c-35,0-65.6,6.6-91.7,19.7
	c-26.1,13.1-47.8,30.4-65.1,51.9c-17.1,21-30.1,45-38.5,70.7c-8.2,24.5-12.4,50.2-12.5,76.1c0.1,26.3,4.1,52.4,11.9,77.5
	c7.9,25.7,20.5,49.7,37.3,70.7c16.9,21.3,38.9,38.3,66,51s59.5,19.1,97.3,19.1C3072.8,772.1,3103.4,765.5,3129.3,752.4L3129.3,752.4
	z M2969.3,728.5c-19.7-12.9-36.2-30-48.4-50.1c-12.8-20.7-22.3-43.2-28.4-66.8c-6-22.4-9.1-45.4-9.3-68.6c0-22.3,3.1-44.5,9.3-65.9
	c5.9-21.1,15.2-41,27.5-59.1c11.9-17.5,27.6-32.1,46-42.7c18.5-10.7,40.1-16.1,64.8-16.1c24.7,0,46.7,6.1,66,18.2
	c19.5,12.3,36.1,28.7,48.7,48c13.4,20.4,23.4,42.7,29.9,66.2c6.7,23.9,10.1,48.6,10.2,73.4c0,22.1-3.2,44.1-9.3,65.3
	c-5.9,21-15.2,41-27.5,59.1c-11.8,17.4-27.4,31.9-45.7,42.3c-18.3,10.5-39.8,15.8-64.5,15.8C3011.8,747.6,2988.8,741.2,2969.3,728.5
	z M3560.4,471.4V340.2h-30.5l2.4,25.7c-15.7-11.7-33.7-19.9-52.8-24.2c-18.9-4.2-35.9-6.3-51-6.3c-24.3,0-44.3,3.5-60,10.4
	c-15.7,7-28.1,15.9-37,26.8c-8.5,10.1-14.9,21.7-18.8,34.3c-3.4,10.8-5.2,22.1-5.4,33.4c0,19.1,3.7,35.4,11,48.9
	c7.3,13.5,17.3,25.3,29.2,34.9c12.5,10,26,18.7,40.3,25.9c14.7,7.6,29.6,14.7,44.8,21.5c17.1,8,33.2,16.3,48.4,25.1s27.5,19.1,37,31
	c9.6,11.9,14.3,26.8,14.3,44.7c0,15.9-3.9,29.4-11.6,40.6c-7.9,11.2-18.7,20-31.3,25.3c-13.6,5.9-28.2,8.8-43,8.6
	c-31.5,0-58.3-9-80.6-27.1c-22.3-18.1-34.4-44.6-36.4-79.6H3306l3.6,127.1h31l-3-25.7c15.5,10.3,32.7,18,50.7,22.7
	c18.1,5,36.8,7.6,55.5,7.8c29.9,0,55.1-4.9,75.8-14.6c20.7-9.7,36.5-23.2,47.5-40.3c11-17.1,16.4-36.6,16.4-58.5
	c0-19.1-3.7-35.5-11-49.2c-7.4-13.7-17.4-25.8-29.6-35.5c-12.8-10.2-26.6-19.1-41.2-26.5c-15.1-7.8-30.3-15-45.4-21.8
	c-17.1-8-33.3-16.2-48.7-24.8c-15.3-8.6-27.8-18.5-37.3-29.8c-9.6-11.3-14.3-25.4-14.3-42.1c0-18.7,6.6-35,19.7-48.9
	c13.1-13.9,32-20.9,56.7-20.9c23.5,0,42.8,5.4,57.9,16.1c15,10.6,27,25,34.6,41.8c8,17.1,12.6,35.5,13.7,54.3L3560.4,471.4
	L3560.4,471.4z M702.3,310c5.8,1,11.5,1.9,17.1,2.7c13.4,2.3,26.5,4.2,39.2,5.9c12.5,1.6,25.1,2.4,37.7,2.5c17.2,0,34.4-2.5,51-7.2
	c17.1-4.8,34.6-13.4,52.5-25.8c17.2-12.3,31.2-28.3,41.1-47c9.5-17.6,14.5-37.2,14.6-57.2c0-27.4-10.9-53.8-30.3-73.1
	c-0.8,20.2-8.5,38.6-23.3,55.3c-14.8,16.7-33.3,29.8-55.5,39.4c-19.7,8.6-38.3,14.5-55.7,17.6c-17.1,3.1-34.5,4.7-51.9,4.7
	c-24.5-0.1-48.9-1.7-73.2-4.9c-2.8-0.2-5.4-0.5-8-0.8c-29-3.7-58.3-5.6-87.6-5.7c-15,0-29.9,0.9-44.7,2.7
	c-39.3,4.2-77.4,16.4-111.9,35.8c-33.5,18.7-60.4,47.4-77,82c-12.1,26.8-18.2,53.8-18.2,81.1c-0.2,28,7.6,55.4,22.6,79
	c15,23.9,38.9,40.6,71.5,50.2c8.8,2.3,17.8,3.4,26.9,3.4c21.5,0,42.2-6.1,62.2-18.2c-15.1-9.6-28.8-21.3-40.6-34.9
	c-21.5-28-32.2-58.8-32.2-92.4c-0.1-17.5,3.7-34.9,11.2-50.8c7.5-15.9,19.6-29.2,36.6-39.8c13.1-7.8,27.5-13.4,42.5-16.5
	c15.6-3.2,31.5-4.8,47.4-4.7c6.1,0,12.3,0.1,18.6,0.4v628.8c8.1-13.6,17.5-24.6,28.2-32.8c10.5-8,21.6-15.2,33.2-21.4
	c9.6-5.2,18.9-11.1,27.7-17.6c8.4-6.2,15.4-14.2,20.5-23.3c5.3-9.3,8-21.6,8-36.7L702.3,310L702.3,310z"/>
</svg>
