<?xml version="1.0" encoding="utf-8"?>
<!-- Generator: Adobe Illustrator 24.3.0, SVG Export Plug-In . SVG Version: 6.00 Build 0)  -->
<svg version="1.1" id="Layer_1" xmlns="http://www.w3.org/2000/svg" xmlns:xlink="http://www.w3.org/1999/xlink" x="0px" y="0px"
	 viewBox="0 0 9312.1 2504" style="enable-background:new 0 0 9312.1 2504;" xml:space="preserve">
<style type="text/css">
	.st0{fill-rule:evenodd;clip-rule:evenodd;fill:#777FD7;}
</style>
<path class="st0" d="M521.9,0c-204.3,250.8-315.6,564.6-315,888.1c0,778.3,631.5,1409.8,1411.1,1409.8
	c323.8,0.5,637.9-111,888.9-315.4c-258.4,318.2-653.4,521.6-1095.9,521.6C631.8,2504,0,1873.1,0,1094.3C0,652.5,203.6,258.2,521.9,0
	z"/>
<g>
	<path class="st0" d="M3803.5,1008.5l-9.8-343.7H2843l-9.8,343.7h60.3c0-96.6,14.1-167.8,42.4-213.4c28.3-45.6,76.6-68.4,145.1-68.4
		L3249,725l-1.6,826c0,36.9-0.8,70.3-2.4,100.2c-1.6,29.9-9.8,53.5-24.5,70.9c-14.7,17.4-42.6,27.2-84,29.3v53.8h383.2v-71.7
		c-22.8,1.1-45.4,2.2-67.7,3.3c-22.3,1.1-44.8,2.2-67.7,3.3c2.4-17.5,3.8-35.2,4.1-52.9c0.5-21.2,0.8-46.4,0.8-75.8l1.6-887.9h138.6
		c56.5-1.1,99.7,9,129.6,30.1c29.9,21.2,50.8,52.9,62.8,95.3c12,42.4,18.5,95.6,19.6,159.6L3803.5,1008.5L3803.5,1008.5z"/>
	<path class="st0" d="M4375.8,1794.5c45.1-22.5,86.3-51.9,122.3-87.2c1.1,14.1,2.4,29.3,4.1,45.6s4.1,33.7,7.3,52.1h233.2v-68.4
		c-19.6,1.1-39.1,2.2-58.7,3.3c-19.6,1.1-39.2,2.2-58.7,3.3c2.2-21.7,3.8-48.3,4.9-79.8c1-31.5,1.6-55.9,1.6-73.3l1.6-615.8h-47.3
		c-12,10.9-28.5,20.9-49.7,30.1c-21.2,9.2-55.2,13.8-101.9,13.8H4384v66.8c19.6-1.1,39.1-1.9,58.7-2.4c19.6-0.6,39.1-1.4,58.7-2.4
		c-3.3,18.6-5.5,37.4-6.5,56.2c-1.1,19-1.6,41.5-1.6,67.6v418.7c-24,34.8-54.8,64.5-90.5,87.2c-37.5,24.4-76.9,37.2-118.2,38.3
		c-64.2,1.1-109.6-21.4-136.2-67.6c-26.6-46.2-39.9-115.9-39.9-209.3V974.3h-47.3c-12,10.9-28.6,20.9-49.7,30.1
		c-21.2,9.2-55.2,13.9-101.9,13.8h-50.6v66.8c18.5-1.1,37.2-1.9,56.2-2.4c19-0.6,37.8-1.3,56.3-2.4c-3.2,17.8-5.1,35.7-5.7,53.8
		c-0.6,17.4-0.8,34.8-0.8,52.1v290c0,89.1,10,159.7,30.1,211.8c20.1,52.1,50,89,89.7,110.8c39.7,21.7,88.9,32.6,147.6,32.6
		C4280.1,1831.2,4328,1818.9,4375.8,1794.5L4375.8,1794.5z"/>
	<path class="st0" d="M5215.6,1827.1c21-3.5,41.3-10.1,60.3-19.6c24.6-12.3,47.4-27.9,67.7-46.4c23.4-20.6,47-48.9,70.9-84.7
		l-44-35.8c-18.6,28.4-42.7,52.7-70.9,71.7c-25.3,17-55.1,26.1-85.6,26.1c-29.3,0-53.2-8.7-71.7-26.1
		c-18.5-17.4-31.8-43.2-39.9-77.4c-8.2-34.2-12.2-75.8-12.2-124.6l3.3-452.9l274-3.3v-63.5h-274V762.5h-55.4
		c-8.5,40.8-24.8,79.5-48.1,114c-23.4,34.8-49.7,62.2-79.1,82.3c-29.4,20.1-58.2,30.7-86.4,31.8v70.1l125.6-1.6l-3.3,472.4
		c0,65.2,6.5,117.6,19.6,157.2c13,39.6,30.7,69.8,53,90.4c20.4,19.6,45.3,33.8,72.6,41.5c25,6.9,50.7,10.5,76.6,10.6
		C5184.1,1830.9,5199.9,1829.6,5215.6,1827.1L5215.6,1827.1z"/>
	<path class="st0" d="M6252.6,1166.5c-36.1-61-87.1-111.8-148.4-147.4c-62-36.4-131-54.6-207.1-54.6c-77.2,0-146.8,19.8-208.7,59.5
		c-62,39.7-110.9,93.7-146.8,162.1c-35.9,68.4-53.8,145.5-53.8,231.3c0,80.4,18.2,151.8,54.6,214.2
		c35.1,61.2,86.1,111.9,147.6,146.6c62,35.3,131,52.9,207.1,53c77.2,0,146.7-20.1,208.7-60.3v0c62-40.2,111.2-94.7,147.6-163.7
		c36.4-69,54.6-145.3,54.6-228.9C6308.1,1299,6289.6,1228.4,6252.6,1166.5z M6119.8,1590c-14.7,52.1-38.9,94.5-72.6,127.1
		c-33.7,32.6-79.4,48.9-137,48.9c-57.6,0-105.5-19-143.5-57v0c-38.1-38-66.3-87.2-84.8-147.4c-18.7-62.1-28.1-126.6-27.7-191.4
		c-0.4-56.9,8.1-113.5,25.3-167.8c16.9-52.1,43.2-94.5,79.1-127.1c35.9-32.6,82.1-48.9,138.6-48.9c43.5,0,80.7,11.4,111.7,34.2
		c31,22.8,56.3,53.5,75.8,92c20.3,40.7,34.8,84,43.2,128.7c9.3,47.5,13.9,95.8,13.9,144.2C6142,1481.1,6134.6,1536.5,6119.8,1590z"
		/>
	<path class="st0" d="M6446.7,1805.1H6781v-66.8c-17.4,1.1-34.5,1.9-51.4,2.4c-16.9,0.6-34,1.4-51.4,2.4c3.1-17.5,5-35.2,5.7-52.9
		c0.6-16.8,0.8-36.1,0.8-57.8l-1.6-400.8c18.2-33.9,40.7-65.4,66.9-93.7c23.2-25.2,50.5-46.4,80.7-62.7c28.8-15.2,56.8-22.3,84-21.2
		c-3.7,22.3,2.2,45.1,16.3,62.7c13.7,17.7,34.7,28.2,57,28.5c19.6,0,35.3-4.6,47.3-13.8c20.1-15.5,32.6-39,34.3-64.3
		c0-35.8-11.4-61.9-34.3-78.2c-23.3-16.4-51.3-25-79.9-24.4c-38.8-0.1-77,8.8-111.7,26.1c-34.8,17-66.9,38.9-95.4,65.2
		c-26,23.3-48.5,50.2-66.8,79.8c-1.1-39.1-2.2-71.4-3.3-96.9c-1.1-25.5-2.7-47-4.9-64.3h-47.3c-13.6,12-28.6,22.1-44.8,30.1
		c-18,9.2-50.3,13.9-97,13.8h-50.6v66.8c19.6-1.1,38.9-1.9,57.9-2.4c19-0.6,38.3-1.4,57.9-2.4c-3.2,17.8-5.1,35.7-5.7,53.8
		c-0.6,17.4-0.8,34.8-0.8,52.1v371.4c0,39.1-1.1,73.6-3.3,103.4c-2.2,29.9-9.8,53.2-22.8,70.1c-13,16.9-36.4,25.3-70.1,25.3
		L6446.7,1805.1L6446.7,1805.1z"/>
	<path class="st0" d="M8269,1028c-23.7-70.1-59.6-135.4-106-193c-47.3-59.2-107.3-106.7-180.2-142.6
		c-72.8-35.8-159.3-53.8-259.3-53.8c-95.7,0-179.1,17.9-250.3,53.8c-71.2,35.8-130.4,83.1-177.7,141.7
		c-46.6,57.4-82.2,122.8-105.2,193c-22.3,67-33.9,137.1-34.3,207.7c0.2,71.8,11.2,143.2,32.6,211.8
		c21.5,70.2,56.1,135.7,101.9,193.1c46.2,58.1,106.3,104.5,180.2,139.3c73.9,34.8,162.5,52.1,265.8,52.1
		c96.8,0,180.5-17.9,251.1-53.8v0c68.6-34.2,129-82.8,176.9-142.5c46.5-57.7,82.1-123.4,105.2-193.9c22.2-66.4,33.8-136,34.2-206.1
		C8303.7,1164.5,8291.8,1094.6,8269,1028z M8115.7,1444.3c-16.1,57.5-41.4,112-75,161.3c-32.3,47.5-74.9,87.1-124.7,115.6
		c-50,28.8-108.7,43.2-176.1,43.2c-72.9,0-135.9-17.4-189.2-52.1c-53.7-35.2-98.8-81.9-132.1-136.8c-34.8-56.6-61-118.1-77.5-182.5
		c-16.3-61.1-24.8-124.1-25.3-187.3c0-60.9,8.5-121.5,25.3-180c16.1-57.5,41.4-112,75-161.3c32.6-47.8,75.5-87.6,125.6-116.5
		c50.6-29.3,109.5-44,176.9-44c67.4,0,127.5,16.6,180.2,49.7c53.2,33.6,98.6,78.4,132.9,131.1c36.5,55.6,64,116.7,81.5,180.8
		c18.3,65.2,27.7,132.6,27.7,200.4C8140.9,1326.2,8132.3,1386.3,8115.7,1444.3z"/>
	<path class="st0" d="M9165,1010.1V651.7h-83.2l6.5,70.1c-43-31.8-92.1-54.3-144.3-66c-51.7-11.4-98.1-17.1-139.4-17.1
		c-66.3,0-121,9.5-163.9,28.5s-76.6,43.4-101.1,73.3c-23.2,27.5-40.6,59.3-51.4,93.7c-9.3,29.5-14.2,60.3-14.7,91.2
		c0,52.1,10.1,96.7,30.2,133.6c20,36.8,47.1,69.2,79.9,95.3c34.2,27.3,71.1,51,110.1,70.9c40.2,20.6,81,40.2,122.3,58.6
		c46.7,21.7,90.8,44.5,132.1,68.4c41.3,23.9,75,52.1,101.1,84.7c26.1,32.6,39.1,73.3,39.1,122.2c0,43.5-10.6,80.4-31.8,110.8
		c-21.5,30.6-51.1,54.6-85.6,69.2c-37.1,16-77,24-117.4,23.6c-85.9,0-159.3-24.7-220.2-74.1c-60.9-49.4-94-121.9-99.5-217.5h-63.6
		l9.8,347h84.8l-8.1-70.1c42.4,28.2,89.3,49.1,138.6,61.9c49.4,13.7,100.4,20.8,151.7,21.2c81.5,0,150.6-13.3,207.1-39.9
		c56.5-26.6,99.7-63.3,129.6-110c29.9-46.7,44.9-99.9,44.8-159.7c0-52.1-10-96.9-30.1-134.4c-20.1-37.4-47.6-70.4-80.7-96.9
		c-34.9-27.9-72.6-52.2-112.5-72.5c-41.3-21.2-82.6-41-123.9-59.5c-46.7-21.7-91-44.2-132.9-67.6c-41.9-23.4-75.8-50.5-101.9-81.4
		c-26.1-31-39.1-69.2-39.2-114.9c0-51,17.9-95.6,53.8-133.6c35.9-38,87.5-57,154.9-57c64.1,0,116.9,14.7,158.2,44
		c41,29,73.6,68.4,94.6,114c21.7,46.6,34.4,96.9,37.5,148.3L9165,1010.1L9165,1010.1z"/>
</g>
<path class="st0" d="M1566.2,691.3c13,2.3,25.6,4.2,38.1,5.9c29.9,5.1,59,9.4,87.5,13.1c27.9,3.6,56,5.5,84.1,5.5
	c38.5-0.1,76.7-5.5,113.7-16.1c38-10.7,77.1-29.8,117.1-57.4c38.3-27.4,69.7-63.2,91.7-104.8c21.2-39.2,32.4-83,32.6-127.6
	c0.1-61.2-24.3-119.9-67.6-163c-1.7,45.1-19,86.2-52,123.3c-33,37.2-74.3,66.4-123.9,87.9c-44,19.2-85.4,32.2-124.3,39.3
	c-38.2,7-77,10.5-115.8,10.6c-54.6-0.2-109.1-3.8-163.2-11c-6.2-0.6-12.1-1.1-17.8-1.7c-64.8-8.3-130-12.5-195.3-12.7
	c-33.3,0-66.7,2-99.8,5.9c-87.7,9.3-172.6,36.5-249.5,79.8C847.1,610.1,787.1,674,750.2,751.3c-27.1,59.7-40.6,120-40.6,180.8
	c-0.5,62.3,16.9,123.5,50.3,176.1c33.5,53.2,86.7,90.5,159.4,111.9c19.6,5.1,39.8,7.6,60,7.6c47.9,0,94.1-13.5,138.7-40.6
	c-33.8-21.4-64.3-47.5-90.5-77.7c-47.9-62.5-71.9-131.2-71.9-206.1c-0.2-39.1,8.3-77.8,24.9-113.2c16.6-35.5,43.8-65,81.6-88.7
	c29.3-17.4,61.3-29.9,94.7-36.8c34.8-7.1,70.2-10.7,105.7-10.6c13.5,0,27.3,0.3,41.4,0.8v1402.4c18-30.4,39-54.8,63-73.1
	c23.3-17.9,48.1-33.9,74-47.7c21.4-11.7,42.1-24.8,61.7-39.3c18.7-13.9,34.3-31.6,45.7-52c11.8-20.8,17.8-48.1,17.8-81.9
	L1566.2,691.3L1566.2,691.3z"/>
</svg>
